<svg width="218" height="218" viewBox="0 0 218 218" fill="none" xmlns="http://www.w3.org/2000/svg">
<path fill-rule="evenodd" clip-rule="evenodd" d="M79.3663 85.0624C94.7671 85.0624 107.252 72.5124 107.252 57.0312C107.252 41.55 94.7671 29 79.3663 29C63.9655 29 51.4807 41.55 51.4807 57.0312C51.4807 72.5124 63.9655 85.0624 79.3663 85.0624ZM77.6727 189C93.0735 189 105.558 176.45 105.558 160.969C105.558 145.488 93.0735 132.938 77.6727 132.938C62.2719 132.938 49.787 145.488 49.7871 160.969C49.7871 176.45 62.2719 189 77.6727 189ZM76.7712 108.201C76.7712 123.682 64.2864 136.232 48.8856 136.232C33.4848 136.232 21 123.682 21 108.201C21 92.7193 33.4848 80.1693 48.8856 80.1693C64.2864 80.1693 76.7712 92.7193 76.7712 108.201ZM138.634 189C154.035 189 166.52 176.45 166.52 160.969C166.52 145.488 154.035 132.938 138.634 132.938C123.233 132.938 110.748 145.488 110.748 160.969C110.748 176.45 123.233 189 138.634 189ZM166.52 57.0312C166.52 72.5124 154.035 85.0624 138.634 85.0624C123.233 85.0624 110.748 72.5124 110.748 57.0312C110.748 41.55 123.233 29 138.634 29C154.035 29 166.52 41.55 166.52 57.0312ZM169.114 136.232C184.515 136.232 197 123.682 197 108.201C197 92.7193 184.515 80.1693 169.114 80.1693C153.714 80.1693 141.229 92.7193 141.229 108.201C141.229 123.682 153.714 136.232 169.114 136.232Z" fill="#5858CD"/>
</svg>
