<svg width="472" height="472" viewBox="0 0 472 472" fill="none" xmlns="http://www.w3.org/2000/svg">
<circle cx="235.969" cy="235.969" r="235.969" fill="white"/>
<ellipse cx="235.501" cy="33.2416" rx="42.6055" ry="21.0687" fill="#EDC7F8"/>
<ellipse cx="374.554" cy="370.34" rx="25.2824" ry="24.8142" fill="#B0D7F8"/>
<ellipse cx="390.004" cy="109.557" rx="22.9414" ry="22.4732" fill="#B0B0FB"/>
<path fill-rule="evenodd" clip-rule="evenodd" d="M214.304 434.508C211.334 440.52 205.14 444.654 197.981 444.654C187.932 444.654 179.786 436.508 179.786 426.459C179.786 416.41 187.932 408.263 197.981 408.263C205.14 408.263 211.334 412.398 214.304 418.41C217.274 412.398 223.467 408.264 230.626 408.264C237.786 408.264 243.979 412.398 246.949 418.41C249.919 412.398 256.113 408.264 263.272 408.264C270.431 408.264 276.624 412.398 279.594 418.41C282.564 412.398 288.758 408.264 295.917 408.264C305.966 408.264 314.112 416.41 314.112 426.459C314.112 436.508 305.966 444.654 295.917 444.654C288.758 444.654 282.564 440.52 279.594 434.508C276.624 440.52 270.431 444.654 263.272 444.654C256.113 444.654 249.919 440.52 246.949 434.508C243.979 440.52 237.786 444.654 230.626 444.654C223.467 444.654 217.274 440.52 214.304 434.508Z" fill="#EDC7F8"/>
<path d="M127.308 322.339C129.887 319.661 134.174 319.661 136.752 322.339L139.269 324.953C141.021 326.773 143.663 327.424 146.06 326.627L149.504 325.482C153.031 324.309 156.827 326.301 157.866 329.871L158.88 333.355C159.585 335.781 161.622 337.585 164.114 337.993L167.696 338.579C171.365 339.18 173.8 342.708 173.061 346.352L172.339 349.908C171.837 352.384 172.801 354.928 174.819 356.448L177.718 358.631C180.687 360.868 181.204 365.124 178.856 368.006L176.564 370.82C174.969 372.779 174.641 375.48 175.721 377.763L177.273 381.044C178.863 384.404 177.343 388.413 173.924 389.874L170.587 391.3C168.265 392.293 166.719 394.532 166.614 397.056L166.464 400.682C166.31 404.397 163.101 407.239 159.395 406.945L155.777 406.657C153.259 406.457 150.85 407.721 149.585 409.907L147.766 413.048C145.904 416.265 141.741 417.291 138.597 415.308L135.527 413.372C133.391 412.024 130.67 412.024 128.534 413.372L125.464 415.308C122.319 417.291 118.157 416.265 116.294 413.048L114.476 409.907C113.21 407.721 110.801 406.457 108.283 406.657L104.665 406.945C100.96 407.239 97.7506 404.397 97.5966 400.682L97.4462 397.056C97.3415 394.532 95.796 392.293 93.4734 391.3L90.1361 389.874C86.7177 388.413 85.1975 384.404 86.7873 381.044L88.3393 377.763C89.4195 375.48 89.0915 372.779 87.4963 370.82L85.2042 368.006C82.8565 365.124 83.3732 360.868 86.3426 358.631L89.2415 356.448C91.259 354.928 92.2238 352.384 91.7214 349.908L90.9996 346.352C90.2603 342.708 92.6957 339.18 96.3644 338.579L99.9461 337.993C102.439 337.585 104.475 335.781 105.181 333.355L106.195 329.871C107.233 326.301 111.029 324.309 114.557 325.482L118.001 326.627C120.398 327.424 123.039 326.773 124.791 324.953L127.308 322.339Z" fill="#FFA27B"/>
<path d="M55.8659 137.926C56.514 136.412 58.6612 136.412 59.3094 137.926L66.2294 154.098C66.6297 155.033 67.7033 155.478 68.6477 155.1L84.9759 148.558C86.5053 147.945 88.0236 149.463 87.4109 150.993L80.869 167.321C80.4907 168.265 80.9354 169.339 81.8707 169.739L98.0423 176.659C99.557 177.307 99.557 179.455 98.0423 180.103L81.8707 187.023C80.9354 187.423 80.4907 188.497 80.869 189.441L87.4109 205.769C88.0236 207.299 86.5053 208.817 84.9759 208.204L68.6477 201.662C67.7033 201.284 66.6297 201.729 66.2294 202.664L59.3094 218.836C58.6612 220.35 56.514 220.35 55.8659 218.836L48.9458 202.664C48.5456 201.729 47.4719 201.284 46.5276 201.662L30.1993 208.204C28.67 208.817 27.1517 207.299 27.7644 205.769L34.3063 189.441C34.6846 188.497 34.2399 187.423 33.3046 187.023L17.133 180.103C15.6183 179.455 15.6183 177.307 17.133 176.659L33.3046 169.739C34.2399 169.339 34.6846 168.265 34.3063 167.321L27.7644 150.993C27.1517 149.463 28.67 147.945 30.1993 148.558L46.5276 155.1C47.4719 155.478 48.5456 155.033 48.9458 154.098L55.8659 137.926Z" fill="#EDC7F8"/>
<path fill-rule="evenodd" clip-rule="evenodd" d="M226.077 237.764C226.117 237.23 226.137 236.689 226.137 236.144C226.137 224.153 216.416 214.432 204.425 214.432C192.433 214.432 182.712 224.153 182.712 236.144C182.712 236.689 182.732 237.23 182.772 237.765C179.936 236.407 176.76 235.647 173.407 235.647C161.415 235.647 151.694 245.368 151.694 257.359C151.694 267.747 158.989 276.431 168.735 278.568C165.833 282.26 164.101 286.916 164.101 291.976C164.101 303.968 173.822 313.689 185.814 313.689C193.712 313.689 200.625 309.472 204.425 303.166C208.224 309.472 215.137 313.689 223.035 313.689C235.027 313.689 244.748 303.968 244.748 291.976C244.748 286.916 243.016 282.26 240.114 278.568C249.86 276.431 257.155 267.747 257.155 257.359C257.155 245.368 247.434 235.647 235.442 235.647C232.089 235.647 228.913 236.407 226.077 237.764Z" fill="#FFA27B"/>
<circle cx="204.424" cy="266.55" r="15.5089" fill="#E3E091"/>
<path fill-rule="evenodd" clip-rule="evenodd" d="M100.333 276.028C102.989 277.036 105.87 277.588 108.88 277.588C122.183 277.588 132.967 266.804 132.967 253.501C132.967 240.198 122.183 229.414 108.88 229.414C96.786 229.414 86.774 238.327 85.0538 249.942C84.8834 250.582 84.7926 251.254 84.7926 251.947V314.107C84.7926 318.398 88.2713 321.877 92.5626 321.877C96.8538 321.877 100.333 318.398 100.333 314.107V276.028Z" fill="#B0D7F8"/>
<ellipse cx="122.866" cy="254.278" rx="5.439" ry="9.324" fill="#B0B0FB"/>
<path fill-rule="evenodd" clip-rule="evenodd" d="M56.0437 276.028C53.3874 277.036 50.5065 277.588 47.4966 277.588C34.1937 277.588 23.4096 266.804 23.4096 253.501C23.4096 240.198 34.1937 229.414 47.4966 229.414C59.5903 229.414 69.6023 238.327 71.3225 249.942C71.4929 250.582 71.5837 251.254 71.5837 251.947V314.107C71.5837 318.398 68.1049 321.877 63.8137 321.877C59.5224 321.877 56.0437 318.398 56.0437 314.107V276.028Z" fill="#B0D7F8"/>
<ellipse cx="5.439" cy="9.324" rx="5.439" ry="9.324" transform="matrix(-1 0 0 1 38.9496 244.954)" fill="#B0B0FB"/>
<path fill-rule="evenodd" clip-rule="evenodd" d="M305.54 54.3102H284.661V75.1893C284.661 83.3098 291.244 89.8928 299.364 89.8928L299.364 89.8928C291.244 89.8928 284.661 96.4759 284.661 104.596V125.475H305.54C313.65 125.475 320.226 118.91 320.243 110.805C320.261 118.91 326.837 125.475 334.947 125.475H355.826V104.596C355.826 96.4855 349.259 89.9085 341.152 89.8929C349.259 89.8772 355.826 83.3002 355.826 75.1893V54.3103H334.947C326.84 54.3103 320.266 60.871 320.243 68.9726C320.221 60.871 313.647 54.3102 305.54 54.3102Z" fill="#E3E091"/>
<path d="M281.852 157.508H436.355V330.021H294.713C287.61 330.021 281.852 324.262 281.852 317.159V157.508Z" fill="#FFA27B"/>
<path d="M281.852 154.255C281.852 147.152 287.61 141.394 294.713 141.394H436.355V175.518H294.713C287.61 175.518 281.852 169.759 281.852 162.656V154.255Z" fill="#E3E091"/>
<path fill-rule="evenodd" clip-rule="evenodd" d="M247.276 65.2595C245.162 67.3734 245.162 70.8008 247.276 72.9147L256.439 82.0783V162.114C256.439 165.103 258.863 167.527 261.852 167.527C264.842 167.527 267.265 165.103 267.265 162.114V80.9188C267.265 80.6768 267.249 80.4385 267.219 80.2049C267.33 78.6893 266.807 77.1356 265.648 75.9767L254.931 65.2595C252.817 63.1456 249.389 63.1456 247.276 65.2595Z" fill="#B0B0FB"/>
<path fill-rule="evenodd" clip-rule="evenodd" d="M124.91 65.2595C127.024 67.3734 127.024 70.8008 124.91 72.9147L115.701 82.1234V162.114C115.701 165.103 113.278 167.527 110.288 167.527C107.299 167.527 104.875 165.103 104.875 162.114V80.9188C104.875 80.6009 104.902 80.2894 104.955 79.9866C104.907 78.5412 105.434 77.0801 106.537 75.9767L117.255 65.2595C119.369 63.1456 122.796 63.1456 124.91 65.2595Z" fill="#B0B0FB"/>
<ellipse cx="142.225" cy="168.068" rx="37.3497" ry="36.2671" fill="#B0D7F8"/>
<ellipse cx="229.915" cy="168.068" rx="37.3497" ry="36.2671" fill="#B0D7F8"/>
<rect x="203.392" y="162.114" width="10.826" height="33.5606" rx="5.413" transform="rotate(90 203.392 162.114)" fill="#B0B0FB"/>
<path fill-rule="evenodd" clip-rule="evenodd" d="M264.518 368.182C261.605 383.596 248.067 395.255 231.806 395.255C213.419 395.255 198.514 380.349 198.514 361.963C198.514 343.576 213.419 328.671 231.806 328.671C248.067 328.671 261.605 340.329 264.518 355.743L331.799 355.743C333.351 355.743 334.608 357.001 334.608 358.553L334.608 365.373C334.608 366.924 333.351 368.182 331.799 368.182L319.557 368.182L319.557 386.951C319.557 388.502 318.3 389.76 316.748 389.76L308.977 389.76C307.425 389.76 306.168 388.502 306.168 386.951L306.168 368.182L300.811 368.182L300.811 386.951C300.811 388.502 299.554 389.76 298.002 389.76L290.231 389.76C288.679 389.76 287.421 388.502 287.421 386.951L287.421 368.182L264.518 368.182ZM231.44 371.109C236.289 371.109 240.22 367.178 240.22 362.329C240.22 357.48 236.289 353.548 231.44 353.548C226.591 353.548 222.659 357.48 222.659 362.329C222.659 367.178 226.591 371.109 231.44 371.109Z" fill="#E3E091"/>
<rect x="136.712" y="40.2645" width="46.5098" height="46.5098" rx="11.1362" fill="#FFA27B"/>
<rect x="197.599" y="68.3559" width="46.5098" height="46.5098" rx="11.1362" transform="rotate(15 197.599 68.3559)" fill="#B0B0FB"/>
</svg>
