<svg width="63" height="24" viewBox="0 0 63 24" fill="none" xmlns="http://www.w3.org/2000/svg">
<g clip-path="url(#clip0_4_12)">
<path d="M7.53745 3.81603H4.54139V15.1064H7.69514C11.5742 15.1064 13.2142 12.9619 13.2142 9.24047C13.2142 5.51905 11.5112 3.81603 7.53745 3.81603ZM0 18.9225V0H8.10512C14.7595 0 17.724 3.56373 17.724 9.24047C17.724 14.9172 14.2234 18.9225 8.13666 18.9225H0Z" fill="#5858CD"/>
<path d="M41.1189 18.9225H36.7982V3.97372H41.1189V9.30355H41.1819C41.9073 4.76215 43.1373 3.97372 45.2187 3.97372H45.9441V8.89356H44.3041C41.8758 8.89356 41.1189 9.55585 41.1189 11.795V18.9225Z" fill="#5858CD"/>
<path d="M49.3802 24C48.371 24 47.7718 23.9054 47.0149 23.8108L47.5195 20.184C48.1818 20.3101 48.8125 20.4047 49.4433 20.4047C50.9886 20.4047 51.7455 20.184 52.4078 18.6702L46.7626 3.97372H51.4617L53.2278 9.46124C53.6377 10.8489 54.1423 12.4573 54.6154 14.0342H54.8677C55.3408 12.4573 55.7823 10.9435 56.1607 9.55585L57.6745 3.97372H62.3105L56.5077 18.8279C55.0885 22.4862 53.1331 24 49.3802 24Z" fill="#5858CD"/>
<path d="M24.1605 9.0174C25.7038 9.0174 26.9549 7.7663 26.9549 6.22299C26.9549 4.67967 25.7038 3.42857 24.1605 3.42857C22.6172 3.42857 21.3661 4.67967 21.3661 6.22299C21.3661 7.7663 22.6172 9.0174 24.1605 9.0174Z" fill="#5858CD"/>
<path d="M23.9908 19.3789C25.5341 19.3789 26.7852 18.1278 26.7852 16.5845C26.7852 15.0412 25.5341 13.7901 23.9908 13.7901C22.4475 13.7901 21.1964 15.0412 21.1964 16.5845C21.1964 18.1278 22.4475 19.3789 23.9908 19.3789Z" fill="#5858CD"/>
<path d="M23.9005 11.324C23.9005 12.8673 22.6494 14.1184 21.106 14.1184C19.5627 14.1184 18.3116 12.8673 18.3116 11.324C18.3116 9.78071 19.5627 8.52961 21.106 8.52961C22.6494 8.52961 23.9005 9.78071 23.9005 11.324Z" fill="#5858CD"/>
<path d="M30.0997 19.3789C31.643 19.3789 32.8941 18.1278 32.8941 16.5845C32.8941 15.0412 31.643 13.7901 30.0997 13.7901C28.5564 13.7901 27.3053 15.0412 27.3053 16.5845C27.3053 18.1278 28.5564 19.3789 30.0997 19.3789Z" fill="#5858CD"/>
<path d="M32.8941 6.22299C32.8941 7.7663 31.643 9.0174 30.0997 9.0174C28.5564 9.0174 27.3053 7.7663 27.3053 6.22299C27.3053 4.67967 28.5564 3.42857 30.0997 3.42857C31.643 3.42857 32.8941 4.67967 32.8941 6.22299Z" fill="#5858CD"/>
<path d="M33.1541 14.1184C34.6975 14.1184 35.9486 12.8673 35.9486 11.324C35.9486 9.78071 34.6975 8.52961 33.1541 8.52961C31.6108 8.52961 30.3597 9.78071 30.3597 11.324C30.3597 12.8673 31.6108 14.1184 33.1541 14.1184Z" fill="#5858CD"/>
</g>
<defs>
<clipPath id="clip0_4_12">
<rect width="63" height="24" fill="white"/>
</clipPath>
</defs>
</svg>
