<svg width="560" height="500" viewBox="0 0 560 500" fill="none" xmlns="http://www.w3.org/2000/svg">
<path fill-rule="evenodd" clip-rule="evenodd" d="M174.729 347.342C174.78 346.646 174.806 345.944 174.806 345.235C174.806 329.641 162.165 317 146.571 317C130.977 317 118.336 329.641 118.336 345.235C118.336 345.944 118.362 346.646 118.413 347.342C114.726 345.577 110.596 344.588 106.235 344.588C90.6413 344.588 78 357.229 78 372.823C78 386.331 87.4861 397.624 100.16 400.403C96.3856 405.204 94.1342 411.259 94.1342 417.84C94.1342 433.434 106.775 446.075 122.369 446.075C132.64 446.075 141.63 440.591 146.571 432.391C151.512 440.591 160.502 446.075 170.773 446.075C186.367 446.075 199.008 433.434 199.008 417.84C199.008 411.259 196.756 405.204 192.982 400.403C205.656 397.624 215.142 386.331 215.142 372.823C215.142 357.229 202.501 344.588 186.907 344.588C182.546 344.588 178.416 345.576 174.729 347.342Z" fill="#FFA27B"/>
<circle cx="146.571" cy="384.775" r="20.1679" fill="#E3E091"/>
<path fill-rule="evenodd" clip-rule="evenodd" d="M281.475 262.288V330.858C281.475 335.715 285.413 339.652 290.27 339.652C295.127 339.652 299.064 335.715 299.064 330.858V287.759C302.07 288.9 305.331 289.525 308.738 289.525C323.794 289.525 336 277.319 336 262.262C336 247.206 323.794 235 308.738 235C295.05 235 283.718 245.088 281.771 258.234C281.578 258.958 281.475 259.719 281.475 260.503V262.237C281.475 262.246 281.475 262.254 281.475 262.262C281.475 262.271 281.475 262.279 281.475 262.288Z" fill="#B0D7F8"/>
<ellipse cx="324.568" cy="263.142" rx="6.15603" ry="10.5532" fill="#B0B0FB"/>
<path fill-rule="evenodd" clip-rule="evenodd" d="M248.936 287.759C245.93 288.9 242.669 289.525 239.262 289.525C224.206 289.525 212 277.319 212 262.262C212 247.206 224.206 235 239.262 235C252.95 235 264.282 245.088 266.229 258.234C266.422 258.958 266.525 259.719 266.525 260.503V330.858C266.525 335.715 262.588 339.652 257.731 339.652C252.874 339.652 248.936 335.715 248.936 330.858V287.759Z" fill="#B0D7F8"/>
<ellipse cx="6.15603" cy="10.5532" rx="6.15603" ry="10.5532" transform="matrix(-1 0 0 1 229.589 252.589)" fill="#B0B0FB"/>
<path fill-rule="evenodd" clip-rule="evenodd" d="M389.379 70H368V91.3793C368 101.917 376.524 110.464 387.054 110.5C376.524 110.536 368 119.083 368 129.62V151H389.379C399.939 151 408.5 142.439 408.5 131.879V110.5H408.5L408.5 110.5V131.879C408.5 142.439 417.061 151 427.621 151H449V129.62C449 119.092 440.49 110.55 429.973 110.5C440.49 110.45 449 101.908 449 91.3795V70.0002H427.621C417.068 70.0002 408.511 78.5497 408.5 89.1003C408.489 78.5496 399.933 70 389.379 70Z" fill="#B0D7F8"/>
<path d="M368.082 185.874H544V382.297H382.726C374.638 382.297 368.082 375.741 368.082 367.654V185.874Z" fill="#FFA27B"/>
<path d="M368.082 182.17C368.082 174.083 374.638 167.527 382.726 167.527H544V206.38H382.726C374.638 206.38 368.082 199.823 368.082 191.736V182.17Z" fill="#E3E091"/>
<path fill-rule="evenodd" clip-rule="evenodd" d="M233.216 39.8951C230.689 42.4219 230.689 46.5187 233.216 49.0455L244.169 59.9991V155.668C244.169 159.241 247.066 162.138 250.639 162.138C254.213 162.138 257.11 159.241 257.11 155.668V58.6129C257.11 58.3237 257.091 58.039 257.054 57.7599C257.188 55.9482 256.562 54.091 255.177 52.7057L242.366 39.8951C239.839 37.3683 235.742 37.3683 233.216 39.8951Z" fill="#B0B0FB"/>
<path fill-rule="evenodd" clip-rule="evenodd" d="M86.948 39.8951C89.4749 42.4219 89.4749 46.5187 86.948 49.0455L75.9407 60.0529V155.668C75.9407 159.241 73.0438 162.138 69.4703 162.138C65.8969 162.138 63 159.241 63 155.668V58.6129C63 58.2329 63.0327 57.8607 63.0956 57.4988C63.0377 55.771 63.6682 54.0245 64.987 52.7057L77.7976 39.8951C80.3244 37.3683 84.4212 37.3683 86.948 39.8951Z" fill="#B0B0FB"/>
<ellipse cx="107.645" cy="162.785" rx="44.6453" ry="43.3512" fill="#B0D7F8"/>
<ellipse cx="212.464" cy="162.785" rx="44.6453" ry="43.3512" fill="#B0D7F8"/>
<rect x="180.76" y="155.668" width="12.9407" height="40.116" rx="6.47033" transform="rotate(90 180.76 155.668)" fill="#B0B0FB"/>
<path fill-rule="evenodd" clip-rule="evenodd" d="M104.833 271.381C101.045 291.426 83.4396 306.587 62.2934 306.587C38.3831 306.587 19 287.204 19 263.293C19 239.383 38.3831 220 62.2934 220C83.4395 220 101.045 235.161 104.833 255.206L192.326 255.206C194.344 255.206 195.98 256.841 195.98 258.859L195.98 267.728C195.98 269.746 194.344 271.381 192.326 271.381L176.407 271.381L176.407 295.788C176.407 297.805 174.772 299.441 172.754 299.441L162.648 299.441C160.63 299.441 158.995 297.805 158.995 295.788L158.995 271.381L152.03 271.381L152.03 295.788C152.03 297.805 150.394 299.441 148.376 299.441L138.27 299.441C136.253 299.441 134.617 297.805 134.617 295.788L134.617 271.381L104.833 271.381ZM61.8177 275.187C68.1237 275.187 73.2357 270.075 73.2357 263.769C73.2357 257.463 68.1237 252.351 61.8177 252.351C55.5117 252.351 50.3997 257.463 50.3997 263.769C50.3997 270.075 55.5117 275.187 61.8177 275.187Z" fill="#E3E091"/>
<path d="M296.019 356.047C298.799 352.473 304.201 352.473 306.981 356.047L310.729 360.866C312.637 363.32 315.945 364.206 318.825 363.035L324.48 360.736C328.675 359.03 333.353 361.731 333.973 366.216L334.809 372.264C335.235 375.344 337.656 377.765 340.736 378.191L346.784 379.027C351.269 379.647 353.97 384.325 352.264 388.52L349.965 394.175C348.794 397.055 349.68 400.363 352.134 402.271L356.953 406.019C360.527 408.799 360.527 414.201 356.953 416.981L352.134 420.729C349.68 422.637 348.794 425.945 349.965 428.825L352.264 434.48C353.97 438.675 351.269 443.353 346.784 443.973L340.736 444.809C337.656 445.235 335.235 447.656 334.809 450.736L333.973 456.784C333.353 461.269 328.675 463.97 324.48 462.264L318.825 459.965C315.945 458.794 312.637 459.68 310.729 462.134L306.981 466.953C304.201 470.527 298.799 470.527 296.019 466.953L292.271 462.134C290.363 459.68 287.055 458.794 284.175 459.965L278.52 462.264C274.325 463.97 269.647 461.269 269.027 456.784L268.191 450.736C267.765 447.656 265.344 445.235 262.264 444.809L256.216 443.973C251.731 443.353 249.03 438.675 250.736 434.48L253.035 428.825C254.206 425.945 253.32 422.637 250.866 420.729L246.047 416.981C242.473 414.201 242.473 408.799 246.047 406.019L250.866 402.271C253.32 400.363 254.206 397.055 253.035 394.175L250.736 388.52C249.03 384.325 251.731 379.647 256.216 379.027L262.264 378.191C265.344 377.765 267.765 375.344 268.191 372.264L269.027 366.216C269.647 361.731 274.325 359.03 278.52 360.736L284.175 363.035C287.055 364.206 290.363 363.32 292.271 360.866L296.019 356.047Z" fill="#F6C0FE"/>
<path d="M314.288 142.833C314.744 141.767 316.256 141.767 316.712 142.833L324.149 160.212C324.431 160.87 325.187 161.183 325.852 160.917L343.399 153.887C344.475 153.455 345.545 154.525 345.113 155.601L338.083 173.148C337.817 173.813 338.13 174.569 338.788 174.851L356.167 182.288C357.233 182.744 357.233 184.256 356.167 184.712L338.788 192.149C338.13 192.431 337.817 193.187 338.083 193.852L345.113 211.399C345.545 212.475 344.475 213.545 343.399 213.113L325.852 206.083C325.187 205.817 324.431 206.13 324.149 206.788L316.712 224.167C316.256 225.233 314.744 225.233 314.288 224.167L306.851 206.788C306.569 206.13 305.813 205.817 305.148 206.083L287.601 213.113C286.525 213.545 285.455 212.475 285.887 211.399L292.917 193.852C293.183 193.187 292.87 192.431 292.212 192.149L274.833 184.712C273.767 184.256 273.767 182.744 274.833 182.288L292.212 174.851C292.87 174.569 293.183 173.813 292.917 173.148L285.887 155.601C285.455 154.525 286.525 153.455 287.601 153.887L305.148 160.917C305.813 161.183 306.569 160.87 306.851 160.212L314.288 142.833Z" fill="#F6C0FE"/>
<rect x="284" y="70" width="62" height="62" rx="19.6723" fill="#E3E091"/>
</svg>
