<svg width="560" height="500" viewBox="0 0 560 500" fill="none" xmlns="http://www.w3.org/2000/svg">
<path d="M406.074 179.266C407.012 176.634 410.734 176.634 411.672 179.266L422.768 210.402C423.422 212.237 425.637 212.957 427.245 211.856L454.523 193.189C456.829 191.611 459.84 193.799 459.052 196.479L449.728 228.191C449.178 230.061 450.546 231.944 452.495 231.999L485.535 232.931C488.328 233.009 489.479 236.549 487.265 238.255L461.082 258.429C459.538 259.619 459.538 261.947 461.082 263.137L487.265 283.311C489.479 285.016 488.328 288.556 485.535 288.635L452.495 289.566C450.546 289.621 449.178 291.505 449.728 293.375L459.052 325.086C459.84 327.767 456.829 329.955 454.523 328.377L427.245 309.709C425.637 308.609 423.422 309.328 422.768 311.164L411.672 342.3C410.734 344.932 407.012 344.932 406.074 342.3L394.978 311.164C394.324 309.328 392.109 308.609 390.501 309.709L363.223 328.377C360.917 329.955 357.906 327.767 358.694 325.086L368.018 293.375C368.568 291.505 367.199 289.621 365.251 289.566L332.21 288.635C329.417 288.556 328.267 285.016 330.481 283.311L356.664 263.137C358.208 261.947 358.208 259.619 356.664 258.429L330.481 238.255C328.267 236.549 329.417 233.009 332.21 232.931L365.251 231.999C367.199 231.944 368.568 230.061 368.018 228.191L358.694 196.479C357.906 193.799 360.917 191.611 363.223 193.189L390.501 211.856C392.109 212.957 394.324 212.237 394.978 210.402L406.074 179.266Z" fill="#B0D7F8"/>
<path d="M397.16 247.612L393.698 247.612L393.698 250.819L397.211 250.819C398.611 250.819 399.247 250.132 399.247 249.216C399.247 248.197 398.687 247.612 397.16 247.612ZM396.651 241.705L393.698 241.705L393.698 244.888L396.6 244.888C398 244.888 398.713 244.455 398.713 243.258C398.713 242.24 398.127 241.705 396.651 241.705ZM390.032 253.9L390.032 238.625L396.727 238.625C400.597 238.625 402.353 239.923 402.353 242.52C402.353 244.328 401.539 245.473 400.037 246.084L400.037 246.161C402.175 246.593 402.964 247.688 402.964 249.725C402.964 252.194 401.386 253.9 397.414 253.9L390.032 253.9ZM409.058 251.354C410.534 251.354 411.502 250.489 411.502 249.267L411.502 248.91L408.905 248.91C407.887 248.91 407.276 249.368 407.276 250.03C407.276 250.769 407.734 251.354 409.058 251.354ZM411.502 253.9L411.502 250.947L411.451 250.947C410.916 253.009 409.592 254.154 407.556 254.154C405.468 254.154 403.89 253.009 403.89 250.641C403.89 248.452 405.188 246.95 408.37 246.95L411.502 246.95L411.502 246.441C411.502 245.142 410.942 244.429 409.618 244.429C408.472 244.429 407.734 244.939 407.505 246.339L404.246 245.881C404.552 243.36 406.028 241.553 409.771 241.553C413.437 241.553 414.964 243.335 414.964 246.415L414.964 253.9L411.502 253.9ZM421.614 244.633C420.036 244.633 419.501 245.27 419.501 246.186C419.501 247.077 420.036 247.714 421.64 247.714C423.244 247.714 423.804 247.103 423.804 246.186C423.804 245.219 423.142 244.633 421.614 244.633ZM421.767 255.249C424.797 255.249 425.408 254.893 425.408 254.104C425.408 253.645 425.128 253.289 424.313 253.289L419.858 253.289C418.865 253.289 418.356 253.722 418.356 254.205C418.356 254.969 418.916 255.249 421.767 255.249ZM421.844 257.719C417.057 257.744 415.759 256.802 415.759 255.326C415.759 254.282 416.828 253.493 418.763 253.263C417.236 253.136 416.599 252.5 416.599 251.634C416.599 250.947 417.134 250.234 418.33 249.903L419.298 249.597C417.439 249.063 416.396 247.815 416.396 245.931C416.396 243.335 418.381 241.833 421.691 241.833L427.724 241.833L427.724 244.735L426.35 244.735C425.815 244.735 425.23 244.709 424.491 244.684L424.466 244.709C425.739 244.964 426.732 245.499 426.732 246.899C426.732 248.885 424.873 249.878 421.614 249.878C420.825 249.878 420.138 249.801 419.527 249.648L419.349 249.928C419.247 250.132 419.17 250.285 419.17 250.438C419.17 250.845 419.425 250.998 420.061 250.998C421.487 250.998 422.938 250.87 424.211 250.87C426.986 250.87 428.081 252.118 428.081 254.104C428.081 256.369 426.452 257.744 421.844 257.719ZM398.644 282.256C393.655 282.256 390.752 278.819 390.752 274.212C390.752 269.604 393.833 266.269 398.644 266.269C403.482 266.269 406.511 269.604 406.511 274.212C406.511 278.819 403.609 282.256 398.644 282.256ZM398.644 278.972C401.47 278.972 402.871 277.063 402.871 274.186C402.871 271.666 401.445 269.578 398.644 269.578C395.844 269.578 394.418 271.666 394.418 274.186C394.418 277.063 395.819 278.972 398.644 278.972ZM417.157 281.9L411.76 276.172L411.556 276.172L411.556 281.9L407.89 281.9L407.89 266.625L411.556 266.625L411.556 273.219L411.76 273.219L417.132 266.625L421.332 266.625L421.332 266.676L414.535 274.441L421.51 281.849L421.51 281.9L417.157 281.9ZM425.722 276.757L422.259 276.757L422.259 266.625L425.722 266.625L425.722 276.757ZM422.132 278.208L425.874 278.208L425.874 281.9L422.132 281.9L422.132 278.208Z" fill="#191B21"/>
<path d="M91.6691 297.877C92.3996 295.827 95.2987 295.827 96.0293 297.877L105.625 324.802C106.134 326.232 107.859 326.793 109.112 325.936L132.701 309.792C134.497 308.563 136.843 310.267 136.229 312.355L128.165 339.779C127.737 341.235 128.803 342.702 130.32 342.745L158.893 343.55C161.069 343.612 161.965 346.369 160.241 347.697L137.598 365.143C136.396 366.07 136.396 367.884 137.598 368.81L160.241 386.256C161.965 387.585 161.069 390.342 158.893 390.403L130.32 391.209C128.803 391.251 127.737 392.719 128.165 394.175L136.229 421.598C136.843 423.686 134.497 425.39 132.701 424.161L109.112 408.018C107.859 407.161 106.134 407.721 105.625 409.151L96.0293 436.077C95.2987 438.127 92.3996 438.127 91.6691 436.077L82.0736 409.151C81.564 407.721 79.8391 407.161 78.5864 408.018L54.997 424.161C53.201 425.39 50.8556 423.686 51.4695 421.598L59.5331 394.175C59.9613 392.719 58.8953 391.251 57.3779 391.209L28.8049 390.403C26.6295 390.342 25.7336 387.585 27.4575 386.256L50.1002 368.81C51.3026 367.884 51.3026 366.07 50.1002 365.143L27.4575 347.697C25.7336 346.369 26.6295 343.612 28.8049 343.55L57.3779 342.745C58.8953 342.702 59.9613 341.235 59.5331 339.779L51.4695 312.355C50.8556 310.267 53.201 308.563 54.997 309.792L78.5864 325.936C79.8391 326.793 81.564 326.232 82.0736 324.802L91.6691 297.877Z" fill="#E3E091"/>
<path d="M100.586 372.226L96.5453 374.558L92.7705 368.02L85.7835 372.054L89.5582 378.592L85.5175 380.925L75.7971 364.089L79.8378 361.756L83.564 368.21L90.551 364.176L86.8249 357.722L90.8656 355.389L100.586 372.226ZM98.0921 354.06L94.1075 356.361L92.6656 353.864L96.6502 351.563L98.0921 354.06ZM106.525 368.797L102.681 371.016L95.0017 357.715L98.846 355.496L106.525 368.797ZM109.292 359.641L105.476 361.845L99.0283 350.677L102.844 348.473L109.292 359.641ZM106.259 363.525L110.384 361.144L112.733 365.212L108.608 367.594L106.259 363.525Z" fill="#191B21"/>
<rect x="101.949" y="61.478" width="67.1171" height="67.1171" rx="19.6723" fill="#B0D7F8"/>
<rect x="31.3585" y="88.0935" width="67.0567" height="67.0567" rx="19.6723" transform="rotate(15 31.3585 88.0935)" fill="#B0B0FB"/>
<path d="M243.072 284.178C243.528 283.111 245.04 283.111 245.496 284.178L255.955 308.619C256.237 309.278 256.993 309.591 257.658 309.325L282.336 299.437C283.413 299.006 284.482 300.075 284.051 301.152L274.164 325.83C273.897 326.495 274.21 327.251 274.869 327.533L299.31 337.992C300.377 338.448 300.377 339.96 299.31 340.416L274.869 350.875C274.21 351.157 273.897 351.913 274.164 352.578L284.051 377.256C284.482 378.333 283.413 379.402 282.336 378.971L257.658 369.084C256.993 368.817 256.237 369.13 255.955 369.789L245.496 394.231C245.04 395.297 243.528 395.297 243.072 394.231L232.613 369.789C232.331 369.13 231.575 368.817 230.91 369.084L206.232 378.971C205.155 379.402 204.086 378.333 204.517 377.256L214.404 352.578C214.671 351.913 214.358 351.157 213.699 350.875L189.258 340.416C188.191 339.96 188.191 338.448 189.258 337.992L213.699 327.533C214.358 327.251 214.671 326.495 214.404 325.83L204.517 301.152C204.086 300.075 205.155 299.006 206.232 299.437L230.91 309.325C231.575 309.591 232.331 309.278 232.613 308.619L243.072 284.178Z" fill="#B0B0FB"/>
<path d="M99.9404 178.458C102.72 174.884 108.122 174.884 110.902 178.458L113.033 181.199C114.942 183.653 118.249 184.539 121.129 183.368L124.345 182.06C128.54 180.355 133.218 183.056 133.838 187.541L134.314 190.98C134.74 194.06 137.161 196.481 140.24 196.907L143.68 197.382C148.165 198.003 150.866 202.681 149.16 206.875L147.852 210.091C146.682 212.971 147.568 216.279 150.022 218.187L152.762 220.319C156.336 223.098 156.336 228.5 152.762 231.28L150.022 233.412C147.568 235.32 146.682 238.627 147.852 241.507L149.16 244.724C150.866 248.918 148.165 253.596 143.68 254.216L140.24 254.692C137.161 255.118 134.74 257.539 134.314 260.619L133.838 264.058C133.218 268.543 128.54 271.244 124.345 269.538L121.129 268.231C118.249 267.06 114.942 267.946 113.033 270.4L110.902 273.141C108.122 276.715 102.72 276.715 99.9404 273.141L97.8089 270.4C95.9003 267.946 92.593 267.06 89.7132 268.231L86.4968 269.538C82.3025 271.244 77.6244 268.543 77.0041 264.058L76.5284 260.619C76.1025 257.539 73.6814 255.118 70.6019 254.692L67.1626 254.216C62.6776 253.596 59.9767 248.918 61.682 244.724L62.9897 241.507C64.1606 238.627 63.2744 235.32 60.8205 233.412L58.0798 231.28C54.5058 228.5 54.5057 223.098 58.0798 220.319L60.8205 218.187C63.2744 216.279 64.1606 212.971 62.9897 210.091L61.682 206.875C59.9767 202.681 62.6776 198.003 67.1626 197.382L70.6019 196.907C73.6814 196.481 76.1025 194.06 76.5284 190.98L77.0041 187.541C77.6244 183.056 82.3025 180.355 86.4968 182.06L89.7132 183.368C92.593 184.539 95.9003 183.653 97.8089 181.199L99.9404 178.458Z" fill="#F6C0FE"/>
<ellipse cx="314.165" cy="78.6513" rx="74.5095" ry="36.8454" fill="#EDC7F8"/>
<path fill-rule="evenodd" clip-rule="evenodd" d="M447.123 64.9497H422.492V89.5808C422.492 99.152 430.244 106.913 439.812 106.927C430.244 106.94 422.491 114.701 422.491 124.272V148.903H447.123C456.695 148.903 464.457 141.149 464.468 131.579C464.48 141.149 472.241 148.903 481.814 148.903H506.445V124.272C506.445 114.717 498.719 106.967 489.173 106.927C498.719 106.887 506.445 99.1362 506.445 89.581V64.95H481.814C472.249 64.95 464.492 72.6925 464.468 82.2523C464.445 72.6923 456.688 64.9497 447.123 64.9497Z" fill="#E3E091"/>
<path fill-rule="evenodd" clip-rule="evenodd" d="M369.453 402.46C364.258 412.973 353.427 420.203 340.907 420.203C323.333 420.203 309.087 405.957 309.087 388.383C309.087 370.809 323.333 356.562 340.907 356.562C353.427 356.562 364.258 363.793 369.453 374.306C374.647 363.793 385.478 356.562 397.998 356.562C410.518 356.562 421.349 363.793 426.543 374.306C431.738 363.793 442.569 356.562 455.089 356.562C467.609 356.562 478.44 363.793 483.634 374.306C488.828 363.793 499.659 356.562 512.179 356.562C529.753 356.562 544 370.809 544 388.383C544 405.957 529.753 420.203 512.179 420.203C499.659 420.203 488.828 412.973 483.634 402.46C478.44 412.973 467.609 420.203 455.089 420.203C442.569 420.203 431.738 412.973 426.543 402.46C421.349 412.973 410.518 420.203 397.998 420.203C385.478 420.203 374.647 412.973 369.453 402.46Z" fill="#EDC7F8"/>
<path fill-rule="evenodd" clip-rule="evenodd" d="M271.689 155.794C271.743 155.065 271.77 154.328 271.77 153.584C271.77 137.227 258.51 123.967 242.153 123.967C225.795 123.967 212.535 137.227 212.535 153.584C212.535 154.328 212.562 155.065 212.616 155.794C208.748 153.942 204.416 152.905 199.841 152.905C183.484 152.905 170.224 166.166 170.224 182.523C170.224 196.693 180.174 208.539 193.469 211.454C189.51 216.49 187.148 222.841 187.148 229.744C187.148 246.102 200.408 259.362 216.766 259.362C227.54 259.362 236.97 253.609 242.153 245.008C247.335 253.609 256.766 259.362 267.539 259.362C283.897 259.362 297.157 246.102 297.157 229.744C297.157 222.841 294.796 216.49 290.836 211.454C304.131 208.538 314.081 196.693 314.081 182.523C314.081 166.166 300.821 152.905 284.464 152.905C279.889 152.905 275.557 153.942 271.689 155.794Z" fill="#FFA27B"/>
<circle cx="242.152" cy="195.06" r="21.1555" fill="#E3E091"/>
</svg>
