<svg width="288" height="1043" viewBox="0 0 288 1043" fill="none" xmlns="http://www.w3.org/2000/svg">
<path d="M18.9858 10.5653C18.9176 9.87784 18.625 9.34375 18.108 8.96307C17.5909 8.58239 16.8892 8.39204 16.0028 8.39204C15.4006 8.39204 14.892 8.47727 14.4773 8.64773C14.0625 8.8125 13.7443 9.04261 13.5227 9.33807C13.3068 9.63352 13.1989 9.96875 13.1989 10.3438C13.1875 10.6562 13.2528 10.929 13.3949 11.1619C13.5426 11.3949 13.7443 11.5966 14 11.767C14.2557 11.9318 14.5511 12.0767 14.8864 12.2017C15.2216 12.321 15.5795 12.4233 15.9602 12.5085L17.5284 12.8835C18.2898 13.054 18.9886 13.2812 19.625 13.5653C20.2614 13.8494 20.8125 14.1989 21.2784 14.6136C21.7443 15.0284 22.1051 15.517 22.3608 16.0795C22.6222 16.642 22.7557 17.2869 22.7614 18.0142C22.7557 19.0824 22.483 20.0085 21.9432 20.7926C21.4091 21.571 20.6364 22.1761 19.625 22.608C18.6193 23.0341 17.4063 23.2472 15.9858 23.2472C14.5767 23.2472 13.3494 23.0312 12.304 22.5994C11.2642 22.1676 10.4517 21.5284 9.86648 20.6818C9.28693 19.8295 8.98295 18.7756 8.95455 17.5199H12.5256C12.5653 18.1051 12.733 18.5937 13.0284 18.9858C13.3295 19.3722 13.7301 19.6648 14.2301 19.8636C14.7358 20.0568 15.3068 20.1534 15.9432 20.1534C16.5682 20.1534 17.1108 20.0625 17.571 19.8807C18.0369 19.6989 18.3977 19.446 18.6534 19.1222C18.9091 18.7983 19.0369 18.4261 19.0369 18.0057C19.0369 17.6136 18.9205 17.2841 18.6875 17.017C18.4602 16.75 18.125 16.5227 17.6818 16.3352C17.2443 16.1477 16.7074 15.9773 16.071 15.8239L14.1705 15.3466C12.6989 14.9886 11.5369 14.429 10.6847 13.6676C9.83239 12.9062 9.40909 11.8807 9.41477 10.5909C9.40909 9.53409 9.69034 8.6108 10.2585 7.82102C10.8324 7.03125 11.6193 6.41477 12.6193 5.97159C13.6193 5.52841 14.7557 5.30682 16.0284 5.30682C17.3239 5.30682 18.4545 5.52841 19.4205 5.97159C20.392 6.41477 21.1477 7.03125 21.6875 7.82102C22.2273 8.6108 22.5057 9.52557 22.5227 10.5653H18.9858ZM32.1385 9.90909V12.6364H24.255V9.90909H32.1385ZM26.0447 6.77273H29.6754V18.9773C29.6754 19.3125 29.7266 19.5739 29.8288 19.7614C29.9311 19.9432 30.0732 20.071 30.255 20.1449C30.4425 20.2187 30.6584 20.2557 30.9027 20.2557C31.0732 20.2557 31.2436 20.2415 31.4141 20.2131C31.5845 20.179 31.7152 20.1534 31.8061 20.1364L32.3771 22.8381C32.1953 22.8949 31.9396 22.9602 31.6101 23.0341C31.2805 23.1136 30.88 23.1619 30.4084 23.179C29.5334 23.2131 28.7663 23.0966 28.1072 22.8295C27.4538 22.5625 26.9453 22.1477 26.5817 21.5852C26.218 21.0227 26.0391 20.3125 26.0447 19.4545V6.77273ZM38.2365 23.2472C37.4013 23.2472 36.657 23.1023 36.0036 22.8125C35.3501 22.517 34.8331 22.0824 34.4524 21.5085C34.0774 20.929 33.8899 20.2074 33.8899 19.3438C33.8899 18.6165 34.0234 18.0057 34.2905 17.5114C34.5575 17.017 34.9212 16.6193 35.3814 16.3182C35.8416 16.017 36.3643 15.7898 36.9496 15.6364C37.5405 15.483 38.1598 15.375 38.8075 15.3125C39.5689 15.233 40.1825 15.1591 40.6484 15.0909C41.1143 15.017 41.4524 14.9091 41.6626 14.767C41.8729 14.625 41.978 14.4148 41.978 14.1364V14.0852C41.978 13.5455 41.8075 13.1278 41.4666 12.8324C41.1314 12.5369 40.6541 12.3892 40.0348 12.3892C39.3814 12.3892 38.8615 12.5341 38.4751 12.8239C38.0888 13.108 37.8331 13.4659 37.7081 13.8977L34.3501 13.625C34.5206 12.8295 34.8558 12.142 35.3558 11.5625C35.8558 10.9773 36.5007 10.5284 37.2905 10.2159C38.0859 9.89773 39.0064 9.73864 40.0518 9.73864C40.7791 9.73864 41.4751 9.82386 42.1399 9.99432C42.8104 10.1648 43.4041 10.429 43.9212 10.7869C44.4439 11.1449 44.8558 11.6051 45.157 12.1676C45.4581 12.7244 45.6087 13.392 45.6087 14.1705V23H42.1655V21.1847H42.0632C41.853 21.5938 41.5717 21.9545 41.2195 22.267C40.8672 22.5739 40.4439 22.8153 39.9496 22.9915C39.4553 23.1619 38.8842 23.2472 38.2365 23.2472ZM39.2763 20.7415C39.8104 20.7415 40.282 20.6364 40.6911 20.4261C41.1001 20.2102 41.4212 19.9205 41.6541 19.5568C41.8871 19.1932 42.0036 18.7812 42.0036 18.321V16.9318C41.8899 17.0057 41.7337 17.0739 41.5348 17.1364C41.3416 17.1932 41.1229 17.2472 40.8786 17.2983C40.6342 17.3437 40.3899 17.3864 40.1456 17.4261C39.9013 17.4602 39.6797 17.4915 39.4808 17.5199C39.0547 17.5824 38.6825 17.6818 38.3643 17.8182C38.0462 17.9545 37.799 18.1392 37.6229 18.3722C37.4467 18.5994 37.3587 18.8835 37.3587 19.2244C37.3587 19.7188 37.5376 20.0966 37.8956 20.358C38.2592 20.6136 38.7195 20.7415 39.2763 20.7415ZM48.4254 23V9.90909H51.9453V12.1932H52.0817C52.3203 11.3807 52.7209 10.767 53.2834 10.3523C53.8459 9.93182 54.4936 9.72159 55.2266 9.72159C55.4084 9.72159 55.6044 9.73295 55.8146 9.75568C56.0249 9.77841 56.2095 9.80966 56.3686 9.84943V13.071C56.1982 13.0199 55.9624 12.9744 55.6612 12.9347C55.3601 12.8949 55.0845 12.875 54.8345 12.875C54.3004 12.875 53.8232 12.9915 53.4027 13.2244C52.9879 13.4517 52.6584 13.7699 52.4141 14.179C52.1754 14.5881 52.0561 15.0597 52.0561 15.5938V23H48.4254ZM65.8651 9.90909V12.6364H57.9815V9.90909H65.8651ZM59.7713 6.77273H63.402V18.9773C63.402 19.3125 63.4531 19.5739 63.5554 19.7614C63.6577 19.9432 63.7997 20.071 63.9815 20.1449C64.169 20.2187 64.3849 20.2557 64.6293 20.2557C64.7997 20.2557 64.9702 20.2415 65.1406 20.2131C65.3111 20.179 65.4418 20.1534 65.5327 20.1364L66.1037 22.8381C65.9219 22.8949 65.6662 22.9602 65.3366 23.0341C65.0071 23.1136 64.6065 23.1619 64.1349 23.179C63.2599 23.2131 62.4929 23.0966 61.8338 22.8295C61.1804 22.5625 60.6719 22.1477 60.3082 21.5852C59.9446 21.0227 59.7656 20.3125 59.7713 19.4545V6.77273Z" fill="black"/>
<path d="M8 79L8.00004 964" stroke="#626AE9"/>
<circle cx="8" cy="94.5" r="8" fill="#B0D7F8"/>
<path d="M59.1136 102V84.5455H65.0114C66.375 84.5455 67.4943 84.7784 68.3693 85.2443C69.2443 85.7045 69.892 86.3381 70.3125 87.1449C70.733 87.9517 70.9432 88.8693 70.9432 89.8977C70.9432 90.9261 70.733 91.8381 70.3125 92.6335C69.892 93.429 69.2472 94.054 68.3778 94.5085C67.5085 94.9574 66.3977 95.1818 65.0455 95.1818H60.2727V93.2727H64.9773C65.9091 93.2727 66.6591 93.1364 67.2273 92.8636C67.8011 92.5909 68.2159 92.2045 68.4716 91.7045C68.733 91.1989 68.8636 90.5966 68.8636 89.8977C68.8636 89.1989 68.733 88.5881 68.4716 88.0653C68.2102 87.5426 67.7926 87.1392 67.2188 86.8551C66.6449 86.5653 65.8864 86.4205 64.9432 86.4205H61.2273V102H59.1136ZM67.3295 94.1591L71.625 102H69.1705L64.9432 94.1591H67.3295ZM79.5405 102.273C78.2791 102.273 77.1911 101.994 76.2763 101.438C75.3672 100.875 74.6655 100.091 74.1712 99.0852C73.6825 98.0739 73.4382 96.8977 73.4382 95.5568C73.4382 94.2159 73.6825 93.0341 74.1712 92.0114C74.6655 90.983 75.353 90.1818 76.2337 89.608C77.12 89.0284 78.1541 88.7386 79.3359 88.7386C80.0178 88.7386 80.6911 88.8523 81.3558 89.0795C82.0206 89.3068 82.6257 89.6761 83.1712 90.1875C83.7166 90.6932 84.1513 91.3636 84.4751 92.1989C84.799 93.0341 84.9609 94.0625 84.9609 95.2841V96.1364H74.87V94.3977H82.9155C82.9155 93.6591 82.7678 93 82.4723 92.4205C82.1825 91.8409 81.7678 91.3835 81.228 91.0483C80.6939 90.7131 80.0632 90.5455 79.3359 90.5455C78.5348 90.5455 77.8416 90.7443 77.2564 91.142C76.6768 91.5341 76.2308 92.0455 75.9183 92.6761C75.6058 93.3068 75.4496 93.983 75.4496 94.7045V95.8636C75.4496 96.8523 75.62 97.6903 75.9609 98.3778C76.3075 99.0597 76.7876 99.5795 77.4013 99.9375C78.0149 100.29 78.728 100.466 79.5405 100.466C80.0689 100.466 80.5462 100.392 80.9723 100.244C81.4041 100.091 81.7763 99.8636 82.0888 99.5625C82.4013 99.2557 82.6428 98.875 82.8132 98.4205L84.7564 98.9659C84.5518 99.625 84.2081 100.205 83.7251 100.705C83.2422 101.199 82.6456 101.585 81.9354 101.864C81.2251 102.136 80.4268 102.273 79.5405 102.273ZM97.2933 91.8409L95.4865 92.3523C95.3729 92.0511 95.2053 91.7585 94.9837 91.4744C94.7678 91.1847 94.4723 90.946 94.0973 90.7585C93.7223 90.571 93.2422 90.4773 92.657 90.4773C91.8558 90.4773 91.1882 90.6619 90.6541 91.0312C90.1257 91.3949 89.8615 91.858 89.8615 92.4205C89.8615 92.9205 90.0433 93.3153 90.407 93.6051C90.7706 93.8949 91.3388 94.1364 92.1115 94.3295L94.0547 94.8068C95.2251 95.0909 96.0973 95.5256 96.6712 96.1108C97.245 96.6903 97.532 97.4375 97.532 98.3523C97.532 99.1023 97.3161 99.7727 96.8842 100.364C96.4581 100.955 95.8615 101.42 95.0945 101.761C94.3274 102.102 93.4354 102.273 92.4183 102.273C91.0831 102.273 89.978 101.983 89.103 101.403C88.228 100.824 87.674 99.9773 87.4411 98.8636L89.3501 98.3864C89.532 99.0909 89.8757 99.6193 90.3814 99.9716C90.8928 100.324 91.5604 100.5 92.3842 100.5C93.3217 100.5 94.0661 100.301 94.6172 99.9034C95.174 99.5 95.4524 99.017 95.4524 98.4545C95.4524 98 95.2933 97.6193 94.9751 97.3125C94.657 97 94.1683 96.767 93.5092 96.6136L91.3274 96.1023C90.1286 95.8182 89.2479 95.3778 88.6854 94.7812C88.1286 94.179 87.8501 93.4261 87.8501 92.5227C87.8501 91.7841 88.0575 91.1307 88.4723 90.5625C88.8928 89.9943 89.4638 89.5483 90.1854 89.2244C90.9126 88.9006 91.7365 88.7386 92.657 88.7386C93.9524 88.7386 94.9695 89.0227 95.7081 89.5909C96.4524 90.1591 96.9808 90.9091 97.2933 91.8409ZM106.048 102.273C104.787 102.273 103.699 101.994 102.784 101.438C101.875 100.875 101.173 100.091 100.679 99.0852C100.19 98.0739 99.946 96.8977 99.946 95.5568C99.946 94.2159 100.19 93.0341 100.679 92.0114C101.173 90.983 101.861 90.1818 102.741 89.608C103.628 89.0284 104.662 88.7386 105.844 88.7386C106.526 88.7386 107.199 88.8523 107.864 89.0795C108.528 89.3068 109.134 89.6761 109.679 90.1875C110.224 90.6932 110.659 91.3636 110.983 92.1989C111.307 93.0341 111.469 94.0625 111.469 95.2841V96.1364H101.378V94.3977H109.423C109.423 93.6591 109.276 93 108.98 92.4205C108.69 91.8409 108.276 91.3835 107.736 91.0483C107.202 90.7131 106.571 90.5455 105.844 90.5455C105.043 90.5455 104.349 90.7443 103.764 91.142C103.185 91.5341 102.739 92.0455 102.426 92.6761C102.114 93.3068 101.957 93.983 101.957 94.7045V95.8636C101.957 96.8523 102.128 97.6903 102.469 98.3778C102.815 99.0597 103.295 99.5795 103.909 99.9375C104.523 100.29 105.236 100.466 106.048 100.466C106.577 100.466 107.054 100.392 107.48 100.244C107.912 100.091 108.284 99.8636 108.597 99.5625C108.909 99.2557 109.151 98.875 109.321 98.4205L111.264 98.9659C111.06 99.625 110.716 100.205 110.233 100.705C109.75 101.199 109.153 101.585 108.443 101.864C107.733 102.136 106.935 102.273 106.048 102.273ZM118.381 102.307C117.551 102.307 116.798 102.151 116.122 101.838C115.446 101.52 114.909 101.062 114.511 100.466C114.114 99.8636 113.915 99.1364 113.915 98.2841C113.915 97.5341 114.063 96.9261 114.358 96.4602C114.653 95.9886 115.048 95.6193 115.543 95.3523C116.037 95.0852 116.582 94.8864 117.179 94.7557C117.781 94.6193 118.386 94.5114 118.994 94.4318C119.79 94.3295 120.435 94.2528 120.929 94.2017C121.429 94.1449 121.793 94.0511 122.02 93.9205C122.253 93.7898 122.369 93.5625 122.369 93.2386V93.1705C122.369 92.3295 122.139 91.6761 121.679 91.2102C121.224 90.7443 120.534 90.5114 119.608 90.5114C118.648 90.5114 117.895 90.7216 117.349 91.142C116.804 91.5625 116.42 92.0114 116.199 92.4886L114.29 91.8068C114.631 91.0114 115.085 90.392 115.653 89.9489C116.227 89.5 116.852 89.1875 117.528 89.0114C118.21 88.8295 118.881 88.7386 119.54 88.7386C119.96 88.7386 120.443 88.7898 120.989 88.892C121.54 88.9886 122.071 89.1903 122.582 89.4972C123.099 89.804 123.528 90.267 123.869 90.8864C124.21 91.5057 124.381 92.3352 124.381 93.375V102H122.369V100.227H122.267C122.131 100.511 121.903 100.815 121.585 101.139C121.267 101.463 120.844 101.739 120.315 101.966C119.787 102.193 119.142 102.307 118.381 102.307ZM118.688 100.5C119.483 100.5 120.153 100.344 120.699 100.031C121.25 99.7188 121.665 99.3153 121.943 98.821C122.227 98.3267 122.369 97.8068 122.369 97.2614V95.4205C122.284 95.5227 122.097 95.6165 121.807 95.7017C121.523 95.7812 121.193 95.8523 120.818 95.9148C120.449 95.9716 120.088 96.0227 119.736 96.0682C119.389 96.108 119.108 96.142 118.892 96.1705C118.369 96.2386 117.881 96.3494 117.426 96.5028C116.977 96.6506 116.614 96.875 116.335 97.1761C116.063 97.4716 115.926 97.875 115.926 98.3864C115.926 99.0852 116.185 99.6136 116.702 99.9716C117.224 100.324 117.886 100.5 118.688 100.5ZM128.052 102V88.9091H129.995V90.8864H130.131C130.37 90.2386 130.802 89.7131 131.427 89.3097C132.052 88.9062 132.756 88.7045 133.54 88.7045C133.688 88.7045 133.873 88.7074 134.094 88.7131C134.316 88.7187 134.484 88.7273 134.597 88.7386V90.7841C134.529 90.767 134.373 90.7415 134.129 90.7074C133.89 90.6676 133.637 90.6477 133.37 90.6477C132.734 90.6477 132.165 90.7812 131.665 91.0483C131.171 91.3097 130.779 91.6733 130.489 92.1392C130.205 92.5994 130.063 93.125 130.063 93.7159V102H128.052ZM141.901 102.273C140.674 102.273 139.617 101.983 138.731 101.403C137.844 100.824 137.163 100.026 136.685 99.0085C136.208 97.9915 135.969 96.8295 135.969 95.5227C135.969 94.1932 136.214 93.0199 136.702 92.0028C137.197 90.9801 137.884 90.1818 138.765 89.608C139.651 89.0284 140.685 88.7386 141.867 88.7386C142.788 88.7386 143.617 88.9091 144.356 89.25C145.094 89.5909 145.7 90.0682 146.171 90.6818C146.643 91.2955 146.935 92.0114 147.049 92.8295H145.038C144.884 92.233 144.543 91.7045 144.015 91.2443C143.492 90.7784 142.788 90.5455 141.901 90.5455C141.117 90.5455 140.43 90.75 139.839 91.1591C139.254 91.5625 138.796 92.1335 138.467 92.8722C138.143 93.6051 137.981 94.4659 137.981 95.4545C137.981 96.4659 138.14 97.3466 138.458 98.0966C138.782 98.8466 139.237 99.429 139.822 99.8438C140.413 100.259 141.106 100.466 141.901 100.466C142.424 100.466 142.898 100.375 143.325 100.193C143.751 100.011 144.112 99.75 144.407 99.4091C144.702 99.0682 144.913 98.6591 145.038 98.1818H147.049C146.935 98.9545 146.654 99.6506 146.205 100.27C145.762 100.884 145.174 101.372 144.441 101.736C143.714 102.094 142.867 102.273 141.901 102.273ZM152.001 94.125V102H149.989V84.5455H152.001V90.9545H152.171C152.478 90.2784 152.938 89.7415 153.552 89.3438C154.171 88.9403 154.995 88.7386 156.023 88.7386C156.915 88.7386 157.697 88.9176 158.367 89.2756C159.038 89.6278 159.558 90.1705 159.927 90.9034C160.302 91.6307 160.489 92.5568 160.489 93.6818V102H158.478V93.8182C158.478 92.7784 158.208 91.9744 157.668 91.4062C157.134 90.8324 156.393 90.5455 155.444 90.5455C154.785 90.5455 154.194 90.6847 153.671 90.9631C153.154 91.2415 152.745 91.6477 152.444 92.1818C152.148 92.7159 152.001 93.3636 152.001 94.125Z" fill="#2D2D2D"/>
<circle cx="8" cy="313.5" r="8" fill="#B0D7F8"/>
<path d="M70.5682 303.545H72.6818V315.102C72.6818 316.295 72.4006 317.361 71.8381 318.298C71.2813 319.23 70.4943 319.966 69.4773 320.506C68.4602 321.04 67.267 321.307 65.8977 321.307C64.5284 321.307 63.3352 321.04 62.3182 320.506C61.3011 319.966 60.5114 319.23 59.9489 318.298C59.392 317.361 59.1136 316.295 59.1136 315.102V303.545H61.2273V314.932C61.2273 315.784 61.4148 316.543 61.7898 317.207C62.1648 317.866 62.6989 318.386 63.392 318.767C64.0909 319.142 64.9261 319.33 65.8977 319.33C66.8693 319.33 67.7045 319.142 68.4034 318.767C69.1023 318.386 69.6364 317.866 70.0057 317.207C70.3807 316.543 70.5682 315.784 70.5682 314.932V303.545ZM85.9027 310.841L84.0959 311.352C83.9822 311.051 83.8146 310.759 83.593 310.474C83.3771 310.185 83.0817 309.946 82.7067 309.759C82.3317 309.571 81.8516 309.477 81.2663 309.477C80.4652 309.477 79.7976 309.662 79.2635 310.031C78.7351 310.395 78.4709 310.858 78.4709 311.42C78.4709 311.92 78.6527 312.315 79.0163 312.605C79.38 312.895 79.9482 313.136 80.7209 313.33L82.6641 313.807C83.8345 314.091 84.7067 314.526 85.2805 315.111C85.8544 315.69 86.1413 316.437 86.1413 317.352C86.1413 318.102 85.9254 318.773 85.4936 319.364C85.0675 319.955 84.4709 320.42 83.7038 320.761C82.9368 321.102 82.0447 321.273 81.0277 321.273C79.6925 321.273 78.5874 320.983 77.7124 320.403C76.8374 319.824 76.2834 318.977 76.0504 317.864L77.9595 317.386C78.1413 318.091 78.4851 318.619 78.9908 318.972C79.5021 319.324 80.1697 319.5 80.9936 319.5C81.9311 319.5 82.6754 319.301 83.2266 318.903C83.7834 318.5 84.0618 318.017 84.0618 317.455C84.0618 317 83.9027 316.619 83.5845 316.312C83.2663 316 82.7777 315.767 82.1186 315.614L79.9368 315.102C78.7379 314.818 77.8572 314.378 77.2947 313.781C76.7379 313.179 76.4595 312.426 76.4595 311.523C76.4595 310.784 76.6669 310.131 77.0817 309.562C77.5021 308.994 78.0732 308.548 78.7947 308.224C79.522 307.901 80.3459 307.739 81.2663 307.739C82.5618 307.739 83.5788 308.023 84.3175 308.591C85.0618 309.159 85.5902 309.909 85.9027 310.841ZM94.6577 321.273C93.3963 321.273 92.3082 320.994 91.3935 320.438C90.4844 319.875 89.7827 319.091 89.2884 318.085C88.7997 317.074 88.5554 315.898 88.5554 314.557C88.5554 313.216 88.7997 312.034 89.2884 311.011C89.7827 309.983 90.4702 309.182 91.3509 308.608C92.2372 308.028 93.2713 307.739 94.4531 307.739C95.1349 307.739 95.8082 307.852 96.473 308.08C97.1378 308.307 97.7429 308.676 98.2884 309.188C98.8338 309.693 99.2685 310.364 99.5923 311.199C99.9162 312.034 100.078 313.062 100.078 314.284V315.136H89.9872V313.398H98.0327C98.0327 312.659 97.8849 312 97.5895 311.42C97.2997 310.841 96.8849 310.384 96.3452 310.048C95.8111 309.713 95.1804 309.545 94.4531 309.545C93.652 309.545 92.9588 309.744 92.3736 310.142C91.794 310.534 91.348 311.045 91.0355 311.676C90.723 312.307 90.5668 312.983 90.5668 313.705V314.864C90.5668 315.852 90.7372 316.69 91.0781 317.378C91.4247 318.06 91.9048 318.58 92.5185 318.938C93.1321 319.29 93.8452 319.466 94.6577 319.466C95.1861 319.466 95.6634 319.392 96.0895 319.244C96.5213 319.091 96.8935 318.864 97.206 318.562C97.5185 318.256 97.7599 317.875 97.9304 317.42L99.8736 317.966C99.669 318.625 99.3253 319.205 98.8423 319.705C98.3594 320.199 97.7628 320.585 97.0526 320.864C96.3423 321.136 95.544 321.273 94.6577 321.273ZM103.138 321V307.909H105.081V309.886H105.217C105.456 309.239 105.888 308.713 106.513 308.31C107.138 307.906 107.842 307.705 108.626 307.705C108.774 307.705 108.959 307.707 109.18 307.713C109.402 307.719 109.57 307.727 109.683 307.739V309.784C109.615 309.767 109.459 309.741 109.214 309.707C108.976 309.668 108.723 309.648 108.456 309.648C107.82 309.648 107.251 309.781 106.751 310.048C106.257 310.31 105.865 310.673 105.575 311.139C105.291 311.599 105.149 312.125 105.149 312.716V321H103.138ZM124.511 307.909V309.614H117.727V307.909H124.511ZM119.704 304.773H121.715V317.25C121.715 317.818 121.798 318.244 121.962 318.528C122.133 318.807 122.349 318.994 122.61 319.091C122.877 319.182 123.158 319.227 123.454 319.227C123.675 319.227 123.857 319.216 123.999 319.193C124.141 319.165 124.255 319.142 124.34 319.125L124.749 320.932C124.613 320.983 124.423 321.034 124.178 321.085C123.934 321.142 123.624 321.17 123.249 321.17C122.681 321.17 122.124 321.048 121.579 320.804C121.039 320.56 120.59 320.188 120.232 319.688C119.88 319.188 119.704 318.557 119.704 317.795V304.773ZM132.884 321.273C131.623 321.273 130.535 320.994 129.62 320.438C128.711 319.875 128.009 319.091 127.515 318.085C127.026 317.074 126.782 315.898 126.782 314.557C126.782 313.216 127.026 312.034 127.515 311.011C128.009 309.983 128.697 309.182 129.577 308.608C130.464 308.028 131.498 307.739 132.68 307.739C133.362 307.739 134.035 307.852 134.7 308.08C135.364 308.307 135.969 308.676 136.515 309.188C137.06 309.693 137.495 310.364 137.819 311.199C138.143 312.034 138.305 313.062 138.305 314.284V315.136H128.214V313.398H136.259C136.259 312.659 136.112 312 135.816 311.42C135.526 310.841 135.112 310.384 134.572 310.048C134.038 309.713 133.407 309.545 132.68 309.545C131.879 309.545 131.185 309.744 130.6 310.142C130.021 310.534 129.575 311.045 129.262 311.676C128.95 312.307 128.793 312.983 128.793 313.705V314.864C128.793 315.852 128.964 316.69 129.305 317.378C129.651 318.06 130.131 318.58 130.745 318.938C131.359 319.29 132.072 319.466 132.884 319.466C133.413 319.466 133.89 319.392 134.316 319.244C134.748 319.091 135.12 318.864 135.433 318.562C135.745 318.256 135.987 317.875 136.157 317.42L138.1 317.966C137.896 318.625 137.552 319.205 137.069 319.705C136.586 320.199 135.989 320.585 135.279 320.864C134.569 321.136 133.771 321.273 132.884 321.273ZM150.637 310.841L148.83 311.352C148.717 311.051 148.549 310.759 148.327 310.474C148.112 310.185 147.816 309.946 147.441 309.759C147.066 309.571 146.586 309.477 146.001 309.477C145.2 309.477 144.532 309.662 143.998 310.031C143.469 310.395 143.205 310.858 143.205 311.42C143.205 311.92 143.387 312.315 143.751 312.605C144.114 312.895 144.683 313.136 145.455 313.33L147.398 313.807C148.569 314.091 149.441 314.526 150.015 315.111C150.589 315.69 150.876 316.437 150.876 317.352C150.876 318.102 150.66 318.773 150.228 319.364C149.802 319.955 149.205 320.42 148.438 320.761C147.671 321.102 146.779 321.273 145.762 321.273C144.427 321.273 143.322 320.983 142.447 320.403C141.572 319.824 141.018 318.977 140.785 317.864L142.694 317.386C142.876 318.091 143.219 318.619 143.725 318.972C144.237 319.324 144.904 319.5 145.728 319.5C146.665 319.5 147.41 319.301 147.961 318.903C148.518 318.5 148.796 318.017 148.796 317.455C148.796 317 148.637 316.619 148.319 316.312C148.001 316 147.512 315.767 146.853 315.614L144.671 315.102C143.472 314.818 142.592 314.378 142.029 313.781C141.472 313.179 141.194 312.426 141.194 311.523C141.194 310.784 141.401 310.131 141.816 309.562C142.237 308.994 142.808 308.548 143.529 308.224C144.256 307.901 145.08 307.739 146.001 307.739C147.296 307.739 148.313 308.023 149.052 308.591C149.796 309.159 150.325 309.909 150.637 310.841ZM159.597 307.909V309.614H152.812V307.909H159.597ZM154.79 304.773H156.801V317.25C156.801 317.818 156.884 318.244 157.048 318.528C157.219 318.807 157.435 318.994 157.696 319.091C157.963 319.182 158.244 319.227 158.54 319.227C158.761 319.227 158.943 319.216 159.085 319.193C159.227 319.165 159.341 319.142 159.426 319.125L159.835 320.932C159.699 320.983 159.509 321.034 159.264 321.085C159.02 321.142 158.71 321.17 158.335 321.17C157.767 321.17 157.21 321.048 156.665 320.804C156.125 320.56 155.676 320.188 155.318 319.688C154.966 319.188 154.79 318.557 154.79 317.795V304.773ZM162.622 321V307.909H164.634V321H162.622ZM163.645 305.727C163.253 305.727 162.915 305.594 162.631 305.327C162.352 305.06 162.213 304.739 162.213 304.364C162.213 303.989 162.352 303.668 162.631 303.401C162.915 303.134 163.253 303 163.645 303C164.037 303 164.372 303.134 164.651 303.401C164.935 303.668 165.077 303.989 165.077 304.364C165.077 304.739 164.935 305.06 164.651 305.327C164.372 305.594 164.037 305.727 163.645 305.727ZM170.329 313.125V321H168.317V307.909H170.261V309.955H170.431C170.738 309.29 171.204 308.756 171.829 308.352C172.454 307.943 173.261 307.739 174.249 307.739C175.136 307.739 175.911 307.92 176.576 308.284C177.241 308.642 177.758 309.188 178.127 309.92C178.496 310.648 178.681 311.568 178.681 312.682V321H176.67V312.818C176.67 311.79 176.403 310.989 175.869 310.415C175.335 309.835 174.602 309.545 173.67 309.545C173.028 309.545 172.454 309.685 171.948 309.963C171.448 310.241 171.053 310.648 170.763 311.182C170.474 311.716 170.329 312.364 170.329 313.125ZM187.641 326.182C186.669 326.182 185.834 326.057 185.135 325.807C184.436 325.562 183.854 325.239 183.388 324.835C182.928 324.438 182.561 324.011 182.288 323.557L183.891 322.432C184.072 322.67 184.303 322.943 184.581 323.25C184.859 323.562 185.24 323.832 185.723 324.06C186.212 324.293 186.851 324.409 187.641 324.409C188.697 324.409 189.57 324.153 190.257 323.642C190.945 323.131 191.288 322.33 191.288 321.239V318.58H191.118C190.97 318.818 190.76 319.114 190.487 319.466C190.22 319.812 189.834 320.122 189.328 320.395C188.828 320.662 188.152 320.795 187.3 320.795C186.243 320.795 185.294 320.545 184.453 320.045C183.618 319.545 182.956 318.818 182.467 317.864C181.984 316.909 181.743 315.75 181.743 314.386C181.743 313.045 181.979 311.878 182.45 310.884C182.922 309.884 183.578 309.111 184.419 308.565C185.26 308.014 186.232 307.739 187.334 307.739C188.186 307.739 188.862 307.881 189.362 308.165C189.868 308.443 190.254 308.761 190.521 309.119C190.794 309.472 191.004 309.761 191.152 309.989H191.357V307.909H193.3V321.375C193.3 322.5 193.044 323.415 192.533 324.119C192.027 324.83 191.345 325.349 190.487 325.679C189.635 326.014 188.686 326.182 187.641 326.182ZM187.572 318.989C188.379 318.989 189.061 318.804 189.618 318.435C190.175 318.065 190.598 317.534 190.888 316.841C191.178 316.148 191.322 315.318 191.322 314.352C191.322 313.409 191.18 312.577 190.896 311.855C190.612 311.134 190.192 310.568 189.635 310.159C189.078 309.75 188.391 309.545 187.572 309.545C186.72 309.545 186.01 309.761 185.442 310.193C184.879 310.625 184.456 311.205 184.172 311.932C183.893 312.659 183.754 313.466 183.754 314.352C183.754 315.261 183.896 316.065 184.18 316.764C184.47 317.457 184.896 318.003 185.459 318.401C186.027 318.793 186.732 318.989 187.572 318.989Z" fill="#2D2D2D"/>
<circle cx="8" cy="457.5" r="8" fill="#B0D7F8"/>
<path d="M73.1591 454H71.0455C70.9205 453.392 70.7017 452.858 70.3892 452.398C70.0824 451.938 69.7074 451.551 69.2642 451.239C68.8267 450.92 68.3409 450.682 67.8068 450.523C67.2727 450.364 66.7159 450.284 66.1364 450.284C65.0795 450.284 64.1222 450.551 63.2642 451.085C62.4119 451.619 61.733 452.406 61.2273 453.446C60.7273 454.486 60.4773 455.761 60.4773 457.273C60.4773 458.784 60.7273 460.06 61.2273 461.099C61.733 462.139 62.4119 462.926 63.2642 463.46C64.1222 463.994 65.0795 464.261 66.1364 464.261C66.7159 464.261 67.2727 464.182 67.8068 464.023C68.3409 463.864 68.8267 463.628 69.2642 463.315C69.7074 462.997 70.0824 462.608 70.3892 462.148C70.7017 461.682 70.9205 461.148 71.0455 460.545H73.1591C73 461.437 72.7102 462.236 72.2898 462.94C71.8693 463.645 71.3466 464.244 70.7216 464.739C70.0966 465.227 69.3949 465.599 68.6165 465.855C67.8438 466.111 67.017 466.239 66.1364 466.239C64.6477 466.239 63.3239 465.875 62.1648 465.148C61.0057 464.42 60.0938 463.386 59.429 462.045C58.7642 460.705 58.4318 459.114 58.4318 457.273C58.4318 455.432 58.7642 453.841 59.429 452.5C60.0938 451.159 61.0057 450.125 62.1648 449.398C63.3239 448.67 64.6477 448.307 66.1364 448.307C67.017 448.307 67.8438 448.435 68.6165 448.69C69.3949 448.946 70.0966 449.321 70.7216 449.815C71.3466 450.304 71.8693 450.901 72.2898 451.605C72.7102 452.304 73 453.102 73.1591 454ZM81.62 466.273C80.4382 466.273 79.4013 465.991 78.5092 465.429C77.6229 464.866 76.9297 464.08 76.4297 463.068C75.9354 462.057 75.6882 460.875 75.6882 459.523C75.6882 458.159 75.9354 456.969 76.4297 455.952C76.9297 454.935 77.6229 454.145 78.5092 453.582C79.4013 453.02 80.4382 452.739 81.62 452.739C82.8018 452.739 83.8359 453.02 84.7223 453.582C85.6143 454.145 86.3075 454.935 86.8018 455.952C87.3018 456.969 87.5518 458.159 87.5518 459.523C87.5518 460.875 87.3018 462.057 86.8018 463.068C86.3075 464.08 85.6143 464.866 84.7223 465.429C83.8359 465.991 82.8018 466.273 81.62 466.273ZM81.62 464.466C82.5178 464.466 83.2564 464.236 83.8359 463.776C84.4155 463.315 84.8445 462.71 85.1229 461.96C85.4013 461.21 85.5405 460.398 85.5405 459.523C85.5405 458.648 85.4013 457.832 85.1229 457.077C84.8445 456.321 84.4155 455.71 83.8359 455.244C83.2564 454.778 82.5178 454.545 81.62 454.545C80.7223 454.545 79.9837 454.778 79.4041 455.244C78.8246 455.71 78.3956 456.321 78.1172 457.077C77.8388 457.832 77.6996 458.648 77.6996 459.523C77.6996 460.398 77.8388 461.21 78.1172 461.96C78.3956 462.71 78.8246 463.315 79.4041 463.776C79.9837 464.236 80.7223 464.466 81.62 464.466ZM92.6335 458.125V466H90.6222V452.909H92.5653V454.955H92.7358C93.0426 454.29 93.5085 453.756 94.1335 453.352C94.7585 452.943 95.5653 452.739 96.554 452.739C97.4403 452.739 98.2159 452.92 98.8807 453.284C99.5455 453.642 100.063 454.188 100.432 454.92C100.801 455.648 100.986 456.568 100.986 457.682V466H98.9744V457.818C98.9744 456.79 98.7074 455.989 98.1733 455.415C97.6392 454.835 96.9063 454.545 95.9744 454.545C95.3324 454.545 94.7585 454.685 94.2528 454.963C93.7528 455.241 93.358 455.648 93.0682 456.182C92.7784 456.716 92.6335 457.364 92.6335 458.125ZM109.979 466.273C108.752 466.273 107.695 465.983 106.809 465.403C105.923 464.824 105.241 464.026 104.763 463.009C104.286 461.991 104.048 460.83 104.048 459.523C104.048 458.193 104.292 457.02 104.781 456.003C105.275 454.98 105.962 454.182 106.843 453.608C107.729 453.028 108.763 452.739 109.945 452.739C110.866 452.739 111.695 452.909 112.434 453.25C113.173 453.591 113.778 454.068 114.249 454.682C114.721 455.295 115.013 456.011 115.127 456.83H113.116C112.962 456.233 112.621 455.705 112.093 455.244C111.57 454.778 110.866 454.545 109.979 454.545C109.195 454.545 108.508 454.75 107.917 455.159C107.332 455.562 106.874 456.134 106.545 456.872C106.221 457.605 106.059 458.466 106.059 459.455C106.059 460.466 106.218 461.347 106.536 462.097C106.86 462.847 107.315 463.429 107.9 463.844C108.491 464.259 109.184 464.466 109.979 464.466C110.502 464.466 110.977 464.375 111.403 464.193C111.829 464.011 112.19 463.75 112.485 463.409C112.781 463.068 112.991 462.659 113.116 462.182H115.127C115.013 462.955 114.732 463.651 114.283 464.27C113.84 464.884 113.252 465.372 112.519 465.736C111.792 466.094 110.945 466.273 109.979 466.273ZM123.556 466.273C122.295 466.273 121.207 465.994 120.292 465.438C119.383 464.875 118.681 464.091 118.187 463.085C117.698 462.074 117.454 460.898 117.454 459.557C117.454 458.216 117.698 457.034 118.187 456.011C118.681 454.983 119.369 454.182 120.249 453.608C121.136 453.028 122.17 452.739 123.352 452.739C124.033 452.739 124.707 452.852 125.371 453.08C126.036 453.307 126.641 453.676 127.187 454.188C127.732 454.693 128.167 455.364 128.491 456.199C128.815 457.034 128.977 458.062 128.977 459.284V460.136H118.886V458.398H126.931C126.931 457.659 126.783 457 126.488 456.42C126.198 455.841 125.783 455.384 125.244 455.048C124.71 454.713 124.079 454.545 123.352 454.545C122.55 454.545 121.857 454.744 121.272 455.142C120.692 455.534 120.246 456.045 119.934 456.676C119.621 457.307 119.465 457.983 119.465 458.705V459.864C119.465 460.852 119.636 461.69 119.977 462.378C120.323 463.06 120.803 463.58 121.417 463.938C122.031 464.29 122.744 464.466 123.556 464.466C124.085 464.466 124.562 464.392 124.988 464.244C125.42 464.091 125.792 463.864 126.104 463.562C126.417 463.256 126.658 462.875 126.829 462.42L128.772 462.966C128.567 463.625 128.224 464.205 127.741 464.705C127.258 465.199 126.661 465.585 125.951 465.864C125.241 466.136 124.442 466.273 123.556 466.273ZM132.036 470.909V452.909H133.979V454.989H134.218C134.366 454.761 134.57 454.472 134.832 454.119C135.099 453.761 135.479 453.443 135.974 453.165C136.474 452.881 137.15 452.739 138.002 452.739C139.104 452.739 140.076 453.014 140.917 453.565C141.758 454.116 142.414 454.898 142.886 455.909C143.357 456.92 143.593 458.114 143.593 459.489C143.593 460.875 143.357 462.077 142.886 463.094C142.414 464.105 141.761 464.889 140.925 465.446C140.09 465.997 139.127 466.273 138.036 466.273C137.195 466.273 136.522 466.134 136.016 465.855C135.511 465.571 135.121 465.25 134.849 464.892C134.576 464.528 134.366 464.227 134.218 463.989H134.048V470.909H132.036ZM134.013 459.455C134.013 460.443 134.158 461.315 134.448 462.071C134.738 462.821 135.161 463.409 135.718 463.835C136.275 464.256 136.957 464.466 137.763 464.466C138.604 464.466 139.306 464.244 139.869 463.801C140.437 463.352 140.863 462.75 141.147 461.994C141.437 461.233 141.582 460.386 141.582 459.455C141.582 458.534 141.44 457.705 141.156 456.966C140.877 456.222 140.454 455.634 139.886 455.202C139.323 454.764 138.616 454.545 137.763 454.545C136.945 454.545 136.258 454.753 135.701 455.168C135.144 455.577 134.724 456.151 134.44 456.889C134.156 457.622 134.013 458.477 134.013 459.455ZM152.354 452.909V454.614H145.57V452.909H152.354ZM147.548 449.773H149.559V462.25C149.559 462.818 149.641 463.244 149.806 463.528C149.977 463.807 150.192 463.994 150.454 464.091C150.721 464.182 151.002 464.227 151.298 464.227C151.519 464.227 151.701 464.216 151.843 464.193C151.985 464.165 152.099 464.142 152.184 464.125L152.593 465.932C152.457 465.983 152.266 466.034 152.022 466.085C151.778 466.142 151.468 466.17 151.093 466.17C150.525 466.17 149.968 466.048 149.423 465.804C148.883 465.56 148.434 465.188 148.076 464.688C147.724 464.188 147.548 463.557 147.548 462.795V449.773ZM167.823 452.909V454.614H161.039V452.909H167.823ZM163.016 449.773H165.028V462.25C165.028 462.818 165.11 463.244 165.275 463.528C165.445 463.807 165.661 463.994 165.923 464.091C166.19 464.182 166.471 464.227 166.766 464.227C166.988 464.227 167.17 464.216 167.312 464.193C167.454 464.165 167.567 464.142 167.653 464.125L168.062 465.932C167.925 465.983 167.735 466.034 167.491 466.085C167.246 466.142 166.937 466.17 166.562 466.17C165.994 466.17 165.437 466.048 164.891 465.804C164.352 465.56 163.903 465.188 163.545 464.688C163.192 464.188 163.016 463.557 163.016 462.795V449.773ZM176.197 466.273C174.935 466.273 173.847 465.994 172.933 465.438C172.023 464.875 171.322 464.091 170.827 463.085C170.339 462.074 170.094 460.898 170.094 459.557C170.094 458.216 170.339 457.034 170.827 456.011C171.322 454.983 172.009 454.182 172.89 453.608C173.776 453.028 174.81 452.739 175.992 452.739C176.674 452.739 177.347 452.852 178.012 453.08C178.677 453.307 179.282 453.676 179.827 454.188C180.373 454.693 180.808 455.364 181.131 456.199C181.455 457.034 181.617 458.062 181.617 459.284V460.136H171.526V458.398H179.572C179.572 457.659 179.424 457 179.129 456.42C178.839 455.841 178.424 455.384 177.884 455.048C177.35 454.713 176.719 454.545 175.992 454.545C175.191 454.545 174.498 454.744 173.913 455.142C173.333 455.534 172.887 456.045 172.575 456.676C172.262 457.307 172.106 457.983 172.106 458.705V459.864C172.106 460.852 172.276 461.69 172.617 462.378C172.964 463.06 173.444 463.58 174.058 463.938C174.671 464.29 175.384 464.466 176.197 464.466C176.725 464.466 177.202 464.392 177.629 464.244C178.06 464.091 178.433 463.864 178.745 463.562C179.058 463.256 179.299 462.875 179.469 462.42L181.413 462.966C181.208 463.625 180.864 464.205 180.381 464.705C179.898 465.199 179.302 465.585 178.592 465.864C177.881 466.136 177.083 466.273 176.197 466.273ZM193.95 455.841L192.143 456.352C192.029 456.051 191.862 455.759 191.64 455.474C191.424 455.185 191.129 454.946 190.754 454.759C190.379 454.571 189.898 454.477 189.313 454.477C188.512 454.477 187.844 454.662 187.31 455.031C186.782 455.395 186.518 455.858 186.518 456.42C186.518 456.92 186.7 457.315 187.063 457.605C187.427 457.895 187.995 458.136 188.768 458.33L190.711 458.807C191.881 459.091 192.754 459.526 193.327 460.111C193.901 460.69 194.188 461.437 194.188 462.352C194.188 463.102 193.972 463.773 193.54 464.364C193.114 464.955 192.518 465.42 191.751 465.761C190.984 466.102 190.092 466.273 189.075 466.273C187.739 466.273 186.634 465.983 185.759 465.403C184.884 464.824 184.33 463.977 184.097 462.864L186.006 462.386C186.188 463.091 186.532 463.619 187.038 463.972C187.549 464.324 188.217 464.5 189.04 464.5C189.978 464.5 190.722 464.301 191.273 463.903C191.83 463.5 192.109 463.017 192.109 462.455C192.109 462 191.95 461.619 191.631 461.312C191.313 461 190.825 460.767 190.165 460.614L187.984 460.102C186.785 459.818 185.904 459.378 185.342 458.781C184.785 458.179 184.506 457.426 184.506 456.523C184.506 455.784 184.714 455.131 185.129 454.562C185.549 453.994 186.12 453.548 186.842 453.224C187.569 452.901 188.393 452.739 189.313 452.739C190.609 452.739 191.626 453.023 192.364 453.591C193.109 454.159 193.637 454.909 193.95 455.841ZM202.909 452.909V454.614H196.125V452.909H202.909ZM198.102 449.773H200.114V462.25C200.114 462.818 200.196 463.244 200.361 463.528C200.531 463.807 200.747 463.994 201.009 464.091C201.276 464.182 201.557 464.227 201.852 464.227C202.074 464.227 202.256 464.216 202.398 464.193C202.54 464.165 202.653 464.142 202.739 464.125L203.148 465.932C203.011 465.983 202.821 466.034 202.577 466.085C202.332 466.142 202.023 466.17 201.648 466.17C201.08 466.17 200.523 466.048 199.977 465.804C199.438 465.56 198.989 465.188 198.631 464.688C198.278 464.188 198.102 463.557 198.102 462.795V449.773ZM205.935 466V452.909H207.946V466H205.935ZM206.957 450.727C206.565 450.727 206.227 450.594 205.943 450.327C205.665 450.06 205.526 449.739 205.526 449.364C205.526 448.989 205.665 448.668 205.943 448.401C206.227 448.134 206.565 448 206.957 448C207.349 448 207.685 448.134 207.963 448.401C208.247 448.668 208.389 448.989 208.389 449.364C208.389 449.739 208.247 450.06 207.963 450.327C207.685 450.594 207.349 450.727 206.957 450.727ZM213.641 458.125V466H211.63V452.909H213.573V454.955H213.744C214.05 454.29 214.516 453.756 215.141 453.352C215.766 452.943 216.573 452.739 217.562 452.739C218.448 452.739 219.224 452.92 219.888 453.284C220.553 453.642 221.07 454.188 221.44 454.92C221.809 455.648 221.994 456.568 221.994 457.682V466H219.982V457.818C219.982 456.79 219.715 455.989 219.181 455.415C218.647 454.835 217.914 454.545 216.982 454.545C216.34 454.545 215.766 454.685 215.261 454.963C214.761 455.241 214.366 455.648 214.076 456.182C213.786 456.716 213.641 457.364 213.641 458.125ZM230.953 471.182C229.982 471.182 229.146 471.057 228.447 470.807C227.749 470.562 227.166 470.239 226.7 469.835C226.24 469.438 225.874 469.011 225.601 468.557L227.203 467.432C227.385 467.67 227.615 467.943 227.893 468.25C228.172 468.562 228.553 468.832 229.036 469.06C229.524 469.293 230.163 469.409 230.953 469.409C232.01 469.409 232.882 469.153 233.57 468.642C234.257 468.131 234.601 467.33 234.601 466.239V463.58H234.43C234.283 463.818 234.072 464.114 233.8 464.466C233.533 464.812 233.146 465.122 232.641 465.395C232.141 465.662 231.464 465.795 230.612 465.795C229.555 465.795 228.607 465.545 227.766 465.045C226.93 464.545 226.268 463.818 225.78 462.864C225.297 461.909 225.055 460.75 225.055 459.386C225.055 458.045 225.291 456.878 225.763 455.884C226.234 454.884 226.891 454.111 227.732 453.565C228.572 453.014 229.544 452.739 230.646 452.739C231.499 452.739 232.175 452.881 232.675 453.165C233.18 453.443 233.567 453.761 233.834 454.119C234.107 454.472 234.317 454.761 234.464 454.989H234.669V452.909H236.612V466.375C236.612 467.5 236.357 468.415 235.845 469.119C235.339 469.83 234.658 470.349 233.8 470.679C232.947 471.014 231.999 471.182 230.953 471.182ZM230.885 463.989C231.692 463.989 232.374 463.804 232.93 463.435C233.487 463.065 233.911 462.534 234.2 461.841C234.49 461.148 234.635 460.318 234.635 459.352C234.635 458.409 234.493 457.577 234.209 456.855C233.925 456.134 233.504 455.568 232.947 455.159C232.391 454.75 231.703 454.545 230.885 454.545C230.033 454.545 229.322 454.761 228.754 455.193C228.192 455.625 227.768 456.205 227.484 456.932C227.206 457.659 227.067 458.466 227.067 459.352C227.067 460.261 227.209 461.065 227.493 461.764C227.783 462.457 228.209 463.003 228.771 463.401C229.339 463.793 230.044 463.989 230.885 463.989Z" fill="#2D2D2D"/>
<circle cx="8" cy="536.5" r="8" fill="#B0D7F8"/>
<path d="M61.2273 527.545V545H59.1136V527.545H61.2273ZM70.1357 545.273C69.0447 545.273 68.0817 544.997 67.2464 544.446C66.4112 543.889 65.7578 543.105 65.2862 542.094C64.8146 541.077 64.5788 539.875 64.5788 538.489C64.5788 537.114 64.8146 535.92 65.2862 534.909C65.7578 533.898 66.4141 533.116 67.255 532.565C68.0959 532.014 69.0675 531.739 70.1697 531.739C71.022 531.739 71.6953 531.881 72.1896 532.165C72.6896 532.443 73.0703 532.761 73.3317 533.119C73.5987 533.472 73.8061 533.761 73.9538 533.989H74.1243V527.545H76.1357V545H74.1925V542.989H73.9538C73.8061 543.227 73.5959 543.528 73.3232 543.892C73.0504 544.25 72.6612 544.571 72.1555 544.855C71.6499 545.134 70.9766 545.273 70.1357 545.273ZM70.4084 543.466C71.2152 543.466 71.897 543.256 72.4538 542.835C73.0107 542.409 73.4339 541.821 73.7237 541.071C74.0135 540.315 74.1584 539.443 74.1584 538.455C74.1584 537.477 74.0163 536.622 73.7322 535.889C73.4482 535.151 73.0277 534.577 72.4709 534.168C71.9141 533.753 71.2266 533.545 70.4084 533.545C69.5561 533.545 68.8459 533.764 68.2777 534.202C67.7152 534.634 67.2919 535.222 67.0078 535.966C66.7294 536.705 66.5902 537.534 66.5902 538.455C66.5902 539.386 66.7322 540.233 67.0163 540.994C67.3061 541.75 67.7322 542.352 68.2947 542.801C68.8629 543.244 69.5675 543.466 70.4084 543.466ZM85.5874 545.273C84.326 545.273 83.2379 544.994 82.3232 544.438C81.4141 543.875 80.7124 543.091 80.218 542.085C79.7294 541.074 79.4851 539.898 79.4851 538.557C79.4851 537.216 79.7294 536.034 80.218 535.011C80.7124 533.983 81.3999 533.182 82.2805 532.608C83.1669 532.028 84.201 531.739 85.3828 531.739C86.0646 531.739 86.7379 531.852 87.4027 532.08C88.0675 532.307 88.6726 532.676 89.218 533.188C89.7635 533.693 90.1982 534.364 90.522 535.199C90.8459 536.034 91.0078 537.062 91.0078 538.284V539.136H80.9169V537.398H88.9624C88.9624 536.659 88.8146 536 88.5192 535.42C88.2294 534.841 87.8146 534.384 87.2749 534.048C86.7408 533.713 86.1101 533.545 85.3828 533.545C84.5817 533.545 83.8885 533.744 83.3033 534.142C82.7237 534.534 82.2777 535.045 81.9652 535.676C81.6527 536.307 81.4964 536.983 81.4964 537.705V538.864C81.4964 539.852 81.6669 540.69 82.0078 541.378C82.3544 542.06 82.8345 542.58 83.4482 542.938C84.0618 543.29 84.7749 543.466 85.5874 543.466C86.1158 543.466 86.593 543.392 87.0192 543.244C87.451 543.091 87.8232 542.864 88.1357 542.562C88.4482 542.256 88.6896 541.875 88.8601 541.42L90.8033 541.966C90.5987 542.625 90.255 543.205 89.772 543.705C89.2891 544.199 88.6925 544.585 87.9822 544.864C87.272 545.136 86.4737 545.273 85.5874 545.273ZM97.9197 545.307C97.0902 545.307 96.3374 545.151 95.6612 544.838C94.9851 544.52 94.4482 544.062 94.0504 543.466C93.6527 542.864 93.4538 542.136 93.4538 541.284C93.4538 540.534 93.6016 539.926 93.897 539.46C94.1925 538.989 94.5874 538.619 95.0817 538.352C95.576 538.085 96.1214 537.886 96.718 537.756C97.3203 537.619 97.9254 537.511 98.5334 537.432C99.3288 537.33 99.9737 537.253 100.468 537.202C100.968 537.145 101.332 537.051 101.559 536.92C101.792 536.79 101.908 536.562 101.908 536.239V536.17C101.908 535.33 101.678 534.676 101.218 534.21C100.763 533.744 100.073 533.511 99.147 533.511C98.1868 533.511 97.4339 533.722 96.8885 534.142C96.343 534.562 95.9595 535.011 95.7379 535.489L93.8288 534.807C94.1697 534.011 94.6243 533.392 95.1925 532.949C95.7663 532.5 96.3913 532.187 97.0675 532.011C97.7493 531.83 98.4197 531.739 99.0788 531.739C99.4993 531.739 99.9822 531.79 100.528 531.892C101.079 531.989 101.61 532.19 102.121 532.497C102.638 532.804 103.067 533.267 103.408 533.886C103.749 534.506 103.92 535.335 103.92 536.375V545H101.908V543.227H101.806C101.67 543.511 101.442 543.815 101.124 544.139C100.806 544.463 100.383 544.739 99.8544 544.966C99.326 545.193 98.6811 545.307 97.9197 545.307ZM98.2266 543.5C99.022 543.5 99.6925 543.344 100.238 543.031C100.789 542.719 101.204 542.315 101.482 541.821C101.766 541.327 101.908 540.807 101.908 540.261V538.42C101.823 538.523 101.636 538.616 101.346 538.702C101.062 538.781 100.732 538.852 100.357 538.915C99.9879 538.972 99.6271 539.023 99.2749 539.068C98.9283 539.108 98.647 539.142 98.4311 539.17C97.9084 539.239 97.4197 539.349 96.9652 539.503C96.5163 539.651 96.1527 539.875 95.8743 540.176C95.6016 540.472 95.4652 540.875 95.4652 541.386C95.4652 542.085 95.7237 542.614 96.2408 542.972C96.7635 543.324 97.4254 543.5 98.2266 543.5ZM119.284 545.273C118.193 545.273 117.23 544.997 116.395 544.446C115.56 543.889 114.906 543.105 114.435 542.094C113.963 541.077 113.727 539.875 113.727 538.489C113.727 537.114 113.963 535.92 114.435 534.909C114.906 533.898 115.563 533.116 116.403 532.565C117.244 532.014 118.216 531.739 119.318 531.739C120.17 531.739 120.844 531.881 121.338 532.165C121.838 532.443 122.219 532.761 122.48 533.119C122.747 533.472 122.955 533.761 123.102 533.989H123.273V527.545H125.284V545H123.341V542.989H123.102C122.955 543.227 122.744 543.528 122.472 543.892C122.199 544.25 121.81 544.571 121.304 544.855C120.798 545.134 120.125 545.273 119.284 545.273ZM119.557 543.466C120.364 543.466 121.045 543.256 121.602 542.835C122.159 542.409 122.582 541.821 122.872 541.071C123.162 540.315 123.307 539.443 123.307 538.455C123.307 537.477 123.165 536.622 122.881 535.889C122.597 535.151 122.176 534.577 121.619 534.168C121.063 533.753 120.375 533.545 119.557 533.545C118.705 533.545 117.994 533.764 117.426 534.202C116.864 534.634 116.44 535.222 116.156 535.966C115.878 536.705 115.739 537.534 115.739 538.455C115.739 539.386 115.881 540.233 116.165 540.994C116.455 541.75 116.881 542.352 117.443 542.801C118.011 543.244 118.716 543.466 119.557 543.466ZM134.736 545.273C133.474 545.273 132.386 544.994 131.472 544.438C130.562 543.875 129.861 543.091 129.366 542.085C128.878 541.074 128.634 539.898 128.634 538.557C128.634 537.216 128.878 536.034 129.366 535.011C129.861 533.983 130.548 533.182 131.429 532.608C132.315 532.028 133.349 531.739 134.531 531.739C135.213 531.739 135.886 531.852 136.551 532.08C137.216 532.307 137.821 532.676 138.366 533.188C138.912 533.693 139.347 534.364 139.67 535.199C139.994 536.034 140.156 537.062 140.156 538.284V539.136H130.065V537.398H138.111C138.111 536.659 137.963 536 137.668 535.42C137.378 534.841 136.963 534.384 136.423 534.048C135.889 533.713 135.259 533.545 134.531 533.545C133.73 533.545 133.037 533.744 132.452 534.142C131.872 534.534 131.426 535.045 131.114 535.676C130.801 536.307 130.645 536.983 130.645 537.705V538.864C130.645 539.852 130.815 540.69 131.156 541.378C131.503 542.06 131.983 542.58 132.597 542.938C133.21 543.29 133.923 543.466 134.736 543.466C135.264 543.466 135.741 543.392 136.168 543.244C136.599 543.091 136.972 542.864 137.284 542.562C137.597 542.256 137.838 541.875 138.009 541.42L139.952 541.966C139.747 542.625 139.403 543.205 138.92 543.705C138.438 544.199 137.841 544.585 137.131 544.864C136.42 545.136 135.622 545.273 134.736 545.273ZM153.522 531.909L148.681 545H146.636L141.795 531.909H143.977L147.59 542.341H147.727L151.34 531.909H153.522ZM161.197 545.273C159.935 545.273 158.847 544.994 157.933 544.438C157.023 543.875 156.322 543.091 155.827 542.085C155.339 541.074 155.094 539.898 155.094 538.557C155.094 537.216 155.339 536.034 155.827 535.011C156.322 533.983 157.009 533.182 157.89 532.608C158.776 532.028 159.81 531.739 160.992 531.739C161.674 531.739 162.347 531.852 163.012 532.08C163.677 532.307 164.282 532.676 164.827 533.188C165.373 533.693 165.808 534.364 166.131 535.199C166.455 536.034 166.617 537.062 166.617 538.284V539.136H156.526V537.398H164.572C164.572 536.659 164.424 536 164.129 535.42C163.839 534.841 163.424 534.384 162.884 534.048C162.35 533.713 161.719 533.545 160.992 533.545C160.191 533.545 159.498 533.744 158.913 534.142C158.333 534.534 157.887 535.045 157.575 535.676C157.262 536.307 157.106 536.983 157.106 537.705V538.864C157.106 539.852 157.276 540.69 157.617 541.378C157.964 542.06 158.444 542.58 159.058 542.938C159.671 543.29 160.384 543.466 161.197 543.466C161.725 543.466 162.202 543.392 162.629 543.244C163.06 543.091 163.433 542.864 163.745 542.562C164.058 542.256 164.299 541.875 164.469 541.42L166.413 541.966C166.208 542.625 165.864 543.205 165.381 543.705C164.898 544.199 164.302 544.585 163.592 544.864C162.881 545.136 162.083 545.273 161.197 545.273ZM171.688 527.545V545H169.677V527.545H171.688ZM180.69 545.273C179.509 545.273 178.472 544.991 177.58 544.429C176.693 543.866 176 543.08 175.5 542.068C175.006 541.057 174.759 539.875 174.759 538.523C174.759 537.159 175.006 535.969 175.5 534.952C176 533.935 176.693 533.145 177.58 532.582C178.472 532.02 179.509 531.739 180.69 531.739C181.872 531.739 182.906 532.02 183.793 532.582C184.685 533.145 185.378 533.935 185.872 534.952C186.372 535.969 186.622 537.159 186.622 538.523C186.622 539.875 186.372 541.057 185.872 542.068C185.378 543.08 184.685 543.866 183.793 544.429C182.906 544.991 181.872 545.273 180.69 545.273ZM180.69 543.466C181.588 543.466 182.327 543.236 182.906 542.776C183.486 542.315 183.915 541.71 184.193 540.96C184.472 540.21 184.611 539.398 184.611 538.523C184.611 537.648 184.472 536.832 184.193 536.077C183.915 535.321 183.486 534.71 182.906 534.244C182.327 533.778 181.588 533.545 180.69 533.545C179.793 533.545 179.054 533.778 178.474 534.244C177.895 534.71 177.466 535.321 177.188 536.077C176.909 536.832 176.77 537.648 176.77 538.523C176.77 539.398 176.909 540.21 177.188 540.96C177.466 541.71 177.895 542.315 178.474 542.776C179.054 543.236 179.793 543.466 180.69 543.466ZM189.692 549.909V531.909H191.636V533.989H191.874C192.022 533.761 192.227 533.472 192.488 533.119C192.755 532.761 193.136 532.443 193.63 532.165C194.13 531.881 194.806 531.739 195.658 531.739C196.761 531.739 197.732 532.014 198.573 532.565C199.414 533.116 200.07 533.898 200.542 534.909C201.013 535.92 201.249 537.114 201.249 538.489C201.249 539.875 201.013 541.077 200.542 542.094C200.07 543.105 199.417 543.889 198.582 544.446C197.746 544.997 196.783 545.273 195.692 545.273C194.852 545.273 194.178 545.134 193.673 544.855C193.167 544.571 192.778 544.25 192.505 543.892C192.232 543.528 192.022 543.227 191.874 542.989H191.704V549.909H189.692ZM191.67 538.455C191.67 539.443 191.815 540.315 192.104 541.071C192.394 541.821 192.817 542.409 193.374 542.835C193.931 543.256 194.613 543.466 195.42 543.466C196.261 543.466 196.962 543.244 197.525 542.801C198.093 542.352 198.519 541.75 198.803 540.994C199.093 540.233 199.238 539.386 199.238 538.455C199.238 537.534 199.096 536.705 198.812 535.966C198.533 535.222 198.11 534.634 197.542 534.202C196.979 533.764 196.272 533.545 195.42 533.545C194.602 533.545 193.914 533.753 193.357 534.168C192.8 534.577 192.38 535.151 192.096 535.889C191.812 536.622 191.67 537.477 191.67 538.455ZM204.317 545V531.909H206.261V533.955H206.431C206.704 533.256 207.144 532.713 207.752 532.327C208.36 531.935 209.09 531.739 209.942 531.739C210.806 531.739 211.525 531.935 212.099 532.327C212.678 532.713 213.13 533.256 213.454 533.955H213.59C213.925 533.278 214.428 532.741 215.099 532.344C215.769 531.94 216.573 531.739 217.511 531.739C218.681 531.739 219.638 532.105 220.383 532.838C221.127 533.565 221.499 534.699 221.499 536.239V545H219.488V536.239C219.488 535.273 219.224 534.582 218.695 534.168C218.167 533.753 217.545 533.545 216.829 533.545C215.908 533.545 215.195 533.824 214.69 534.381C214.184 534.932 213.931 535.631 213.931 536.477V545H211.886V536.034C211.886 535.29 211.644 534.69 211.161 534.236C210.678 533.776 210.056 533.545 209.295 533.545C208.772 533.545 208.283 533.685 207.829 533.963C207.38 534.241 207.016 534.628 206.738 535.122C206.465 535.611 206.329 536.176 206.329 536.818V545H204.317ZM230.665 545.273C229.404 545.273 228.316 544.994 227.401 544.438C226.492 543.875 225.79 543.091 225.296 542.085C224.808 541.074 224.563 539.898 224.563 538.557C224.563 537.216 224.808 536.034 225.296 535.011C225.79 533.983 226.478 533.182 227.359 532.608C228.245 532.028 229.279 531.739 230.461 531.739C231.143 531.739 231.816 531.852 232.481 532.08C233.146 532.307 233.751 532.676 234.296 533.188C234.842 533.693 235.276 534.364 235.6 535.199C235.924 536.034 236.086 537.062 236.086 538.284V539.136H225.995V537.398H234.04C234.04 536.659 233.893 536 233.597 535.42C233.308 534.841 232.893 534.384 232.353 534.048C231.819 533.713 231.188 533.545 230.461 533.545C229.66 533.545 228.967 533.744 228.381 534.142C227.802 534.534 227.356 535.045 227.043 535.676C226.731 536.307 226.575 536.983 226.575 537.705V538.864C226.575 539.852 226.745 540.69 227.086 541.378C227.433 542.06 227.913 542.58 228.526 542.938C229.14 543.29 229.853 543.466 230.665 543.466C231.194 543.466 231.671 543.392 232.097 543.244C232.529 543.091 232.901 542.864 233.214 542.562C233.526 542.256 233.768 541.875 233.938 541.42L235.881 541.966C235.677 542.625 235.333 543.205 234.85 543.705C234.367 544.199 233.771 544.585 233.06 544.864C232.35 545.136 231.552 545.273 230.665 545.273ZM241.157 537.125V545H239.146V531.909H241.089V533.955H241.259C241.566 533.29 242.032 532.756 242.657 532.352C243.282 531.943 244.089 531.739 245.077 531.739C245.964 531.739 246.739 531.92 247.404 532.284C248.069 532.642 248.586 533.188 248.955 533.92C249.325 534.648 249.509 535.568 249.509 536.682V545H247.498V536.818C247.498 535.79 247.231 534.989 246.697 534.415C246.163 533.835 245.43 533.545 244.498 533.545C243.856 533.545 243.282 533.685 242.776 533.963C242.276 534.241 241.881 534.648 241.592 535.182C241.302 535.716 241.157 536.364 241.157 537.125ZM258.878 531.909V533.614H252.094V531.909H258.878ZM254.071 528.773H256.082V541.25C256.082 541.818 256.165 542.244 256.33 542.528C256.5 542.807 256.716 542.994 256.977 543.091C257.244 543.182 257.526 543.227 257.821 543.227C258.043 543.227 258.224 543.216 258.366 543.193C258.509 543.165 258.622 543.142 258.707 543.125L259.116 544.932C258.98 544.983 258.79 545.034 258.545 545.085C258.301 545.142 257.991 545.17 257.616 545.17C257.048 545.17 256.491 545.048 255.946 544.804C255.406 544.56 254.957 544.188 254.599 543.688C254.247 543.188 254.071 542.557 254.071 541.795V528.773Z" fill="#2D2D2D"/>
<circle cx="8" cy="681.5" r="8" fill="#B0D7F8"/>
<path d="M73.1591 678H71.0455C70.9205 677.392 70.7017 676.858 70.3892 676.398C70.0824 675.938 69.7074 675.551 69.2642 675.239C68.8267 674.92 68.3409 674.682 67.8068 674.523C67.2727 674.364 66.7159 674.284 66.1364 674.284C65.0795 674.284 64.1222 674.551 63.2642 675.085C62.4119 675.619 61.733 676.406 61.2273 677.446C60.7273 678.486 60.4773 679.761 60.4773 681.273C60.4773 682.784 60.7273 684.06 61.2273 685.099C61.733 686.139 62.4119 686.926 63.2642 687.46C64.1222 687.994 65.0795 688.261 66.1364 688.261C66.7159 688.261 67.2727 688.182 67.8068 688.023C68.3409 687.864 68.8267 687.628 69.2642 687.315C69.7074 686.997 70.0824 686.608 70.3892 686.148C70.7017 685.682 70.9205 685.148 71.0455 684.545H73.1591C73 685.437 72.7102 686.236 72.2898 686.94C71.8693 687.645 71.3466 688.244 70.7216 688.739C70.0966 689.227 69.3949 689.599 68.6165 689.855C67.8438 690.111 67.017 690.239 66.1364 690.239C64.6477 690.239 63.3239 689.875 62.1648 689.148C61.0057 688.42 60.0938 687.386 59.429 686.045C58.7642 684.705 58.4318 683.114 58.4318 681.273C58.4318 679.432 58.7642 677.841 59.429 676.5C60.0938 675.159 61.0057 674.125 62.1648 673.398C63.3239 672.67 64.6477 672.307 66.1364 672.307C67.017 672.307 67.8438 672.435 68.6165 672.69C69.3949 672.946 70.0966 673.321 70.7216 673.815C71.3466 674.304 71.8693 674.901 72.2898 675.605C72.7102 676.304 73 677.102 73.1591 678ZM81.62 690.273C80.4382 690.273 79.4013 689.991 78.5092 689.429C77.6229 688.866 76.9297 688.08 76.4297 687.068C75.9354 686.057 75.6882 684.875 75.6882 683.523C75.6882 682.159 75.9354 680.969 76.4297 679.952C76.9297 678.935 77.6229 678.145 78.5092 677.582C79.4013 677.02 80.4382 676.739 81.62 676.739C82.8018 676.739 83.8359 677.02 84.7223 677.582C85.6143 678.145 86.3075 678.935 86.8018 679.952C87.3018 680.969 87.5518 682.159 87.5518 683.523C87.5518 684.875 87.3018 686.057 86.8018 687.068C86.3075 688.08 85.6143 688.866 84.7223 689.429C83.8359 689.991 82.8018 690.273 81.62 690.273ZM81.62 688.466C82.5178 688.466 83.2564 688.236 83.8359 687.776C84.4155 687.315 84.8445 686.71 85.1229 685.96C85.4013 685.21 85.5405 684.398 85.5405 683.523C85.5405 682.648 85.4013 681.832 85.1229 681.077C84.8445 680.321 84.4155 679.71 83.8359 679.244C83.2564 678.778 82.5178 678.545 81.62 678.545C80.7223 678.545 79.9837 678.778 79.4041 679.244C78.8246 679.71 78.3956 680.321 78.1172 681.077C77.8388 681.832 77.6996 682.648 77.6996 683.523C77.6996 684.398 77.8388 685.21 78.1172 685.96C78.3956 686.71 78.8246 687.315 79.4041 687.776C79.9837 688.236 80.7223 688.466 81.62 688.466ZM92.6335 682.125V690H90.6222V676.909H92.5653V678.955H92.7358C93.0426 678.29 93.5085 677.756 94.1335 677.352C94.7585 676.943 95.5653 676.739 96.554 676.739C97.4403 676.739 98.2159 676.92 98.8807 677.284C99.5455 677.642 100.063 678.188 100.432 678.92C100.801 679.648 100.986 680.568 100.986 681.682V690H98.9744V681.818C98.9744 680.79 98.7074 679.989 98.1733 679.415C97.6392 678.835 96.9063 678.545 95.9744 678.545C95.3324 678.545 94.7585 678.685 94.2528 678.963C93.7528 679.241 93.358 679.648 93.0682 680.182C92.7784 680.716 92.6335 681.364 92.6335 682.125ZM109.979 690.273C108.752 690.273 107.695 689.983 106.809 689.403C105.923 688.824 105.241 688.026 104.763 687.009C104.286 685.991 104.048 684.83 104.048 683.523C104.048 682.193 104.292 681.02 104.781 680.003C105.275 678.98 105.962 678.182 106.843 677.608C107.729 677.028 108.763 676.739 109.945 676.739C110.866 676.739 111.695 676.909 112.434 677.25C113.173 677.591 113.778 678.068 114.249 678.682C114.721 679.295 115.013 680.011 115.127 680.83H113.116C112.962 680.233 112.621 679.705 112.093 679.244C111.57 678.778 110.866 678.545 109.979 678.545C109.195 678.545 108.508 678.75 107.917 679.159C107.332 679.562 106.874 680.134 106.545 680.872C106.221 681.605 106.059 682.466 106.059 683.455C106.059 684.466 106.218 685.347 106.536 686.097C106.86 686.847 107.315 687.429 107.9 687.844C108.491 688.259 109.184 688.466 109.979 688.466C110.502 688.466 110.977 688.375 111.403 688.193C111.829 688.011 112.19 687.75 112.485 687.409C112.781 687.068 112.991 686.659 113.116 686.182H115.127C115.013 686.955 114.732 687.651 114.283 688.27C113.84 688.884 113.252 689.372 112.519 689.736C111.792 690.094 110.945 690.273 109.979 690.273ZM123.556 690.273C122.295 690.273 121.207 689.994 120.292 689.438C119.383 688.875 118.681 688.091 118.187 687.085C117.698 686.074 117.454 684.898 117.454 683.557C117.454 682.216 117.698 681.034 118.187 680.011C118.681 678.983 119.369 678.182 120.249 677.608C121.136 677.028 122.17 676.739 123.352 676.739C124.033 676.739 124.707 676.852 125.371 677.08C126.036 677.307 126.641 677.676 127.187 678.188C127.732 678.693 128.167 679.364 128.491 680.199C128.815 681.034 128.977 682.062 128.977 683.284V684.136H118.886V682.398H126.931C126.931 681.659 126.783 681 126.488 680.42C126.198 679.841 125.783 679.384 125.244 679.048C124.71 678.713 124.079 678.545 123.352 678.545C122.55 678.545 121.857 678.744 121.272 679.142C120.692 679.534 120.246 680.045 119.934 680.676C119.621 681.307 119.465 681.983 119.465 682.705V683.864C119.465 684.852 119.636 685.69 119.977 686.378C120.323 687.06 120.803 687.58 121.417 687.938C122.031 688.29 122.744 688.466 123.556 688.466C124.085 688.466 124.562 688.392 124.988 688.244C125.42 688.091 125.792 687.864 126.104 687.562C126.417 687.256 126.658 686.875 126.829 686.42L128.772 686.966C128.567 687.625 128.224 688.205 127.741 688.705C127.258 689.199 126.661 689.585 125.951 689.864C125.241 690.136 124.442 690.273 123.556 690.273ZM132.036 694.909V676.909H133.979V678.989H134.218C134.366 678.761 134.57 678.472 134.832 678.119C135.099 677.761 135.479 677.443 135.974 677.165C136.474 676.881 137.15 676.739 138.002 676.739C139.104 676.739 140.076 677.014 140.917 677.565C141.758 678.116 142.414 678.898 142.886 679.909C143.357 680.92 143.593 682.114 143.593 683.489C143.593 684.875 143.357 686.077 142.886 687.094C142.414 688.105 141.761 688.889 140.925 689.446C140.09 689.997 139.127 690.273 138.036 690.273C137.195 690.273 136.522 690.134 136.016 689.855C135.511 689.571 135.121 689.25 134.849 688.892C134.576 688.528 134.366 688.227 134.218 687.989H134.048V694.909H132.036ZM134.013 683.455C134.013 684.443 134.158 685.315 134.448 686.071C134.738 686.821 135.161 687.409 135.718 687.835C136.275 688.256 136.957 688.466 137.763 688.466C138.604 688.466 139.306 688.244 139.869 687.801C140.437 687.352 140.863 686.75 141.147 685.994C141.437 685.233 141.582 684.386 141.582 683.455C141.582 682.534 141.44 681.705 141.156 680.966C140.877 680.222 140.454 679.634 139.886 679.202C139.323 678.764 138.616 678.545 137.763 678.545C136.945 678.545 136.258 678.753 135.701 679.168C135.144 679.577 134.724 680.151 134.44 680.889C134.156 681.622 134.013 682.477 134.013 683.455ZM152.354 676.909V678.614H145.57V676.909H152.354ZM147.548 673.773H149.559V686.25C149.559 686.818 149.641 687.244 149.806 687.528C149.977 687.807 150.192 687.994 150.454 688.091C150.721 688.182 151.002 688.227 151.298 688.227C151.519 688.227 151.701 688.216 151.843 688.193C151.985 688.165 152.099 688.142 152.184 688.125L152.593 689.932C152.457 689.983 152.266 690.034 152.022 690.085C151.778 690.142 151.468 690.17 151.093 690.17C150.525 690.17 149.968 690.048 149.423 689.804C148.883 689.56 148.434 689.188 148.076 688.688C147.724 688.188 147.548 687.557 147.548 686.795V673.773ZM167.823 676.909V678.614H161.039V676.909H167.823ZM163.016 673.773H165.028V686.25C165.028 686.818 165.11 687.244 165.275 687.528C165.445 687.807 165.661 687.994 165.923 688.091C166.19 688.182 166.471 688.227 166.766 688.227C166.988 688.227 167.17 688.216 167.312 688.193C167.454 688.165 167.567 688.142 167.653 688.125L168.062 689.932C167.925 689.983 167.735 690.034 167.491 690.085C167.246 690.142 166.937 690.17 166.562 690.17C165.994 690.17 165.437 690.048 164.891 689.804C164.352 689.56 163.903 689.188 163.545 688.688C163.192 688.188 163.016 687.557 163.016 686.795V673.773ZM176.197 690.273C174.935 690.273 173.847 689.994 172.933 689.438C172.023 688.875 171.322 688.091 170.827 687.085C170.339 686.074 170.094 684.898 170.094 683.557C170.094 682.216 170.339 681.034 170.827 680.011C171.322 678.983 172.009 678.182 172.89 677.608C173.776 677.028 174.81 676.739 175.992 676.739C176.674 676.739 177.347 676.852 178.012 677.08C178.677 677.307 179.282 677.676 179.827 678.188C180.373 678.693 180.808 679.364 181.131 680.199C181.455 681.034 181.617 682.062 181.617 683.284V684.136H171.526V682.398H179.572C179.572 681.659 179.424 681 179.129 680.42C178.839 679.841 178.424 679.384 177.884 679.048C177.35 678.713 176.719 678.545 175.992 678.545C175.191 678.545 174.498 678.744 173.913 679.142C173.333 679.534 172.887 680.045 172.575 680.676C172.262 681.307 172.106 681.983 172.106 682.705V683.864C172.106 684.852 172.276 685.69 172.617 686.378C172.964 687.06 173.444 687.58 174.058 687.938C174.671 688.29 175.384 688.466 176.197 688.466C176.725 688.466 177.202 688.392 177.629 688.244C178.06 688.091 178.433 687.864 178.745 687.562C179.058 687.256 179.299 686.875 179.469 686.42L181.413 686.966C181.208 687.625 180.864 688.205 180.381 688.705C179.898 689.199 179.302 689.585 178.592 689.864C177.881 690.136 177.083 690.273 176.197 690.273ZM193.95 679.841L192.143 680.352C192.029 680.051 191.862 679.759 191.64 679.474C191.424 679.185 191.129 678.946 190.754 678.759C190.379 678.571 189.898 678.477 189.313 678.477C188.512 678.477 187.844 678.662 187.31 679.031C186.782 679.395 186.518 679.858 186.518 680.42C186.518 680.92 186.7 681.315 187.063 681.605C187.427 681.895 187.995 682.136 188.768 682.33L190.711 682.807C191.881 683.091 192.754 683.526 193.327 684.111C193.901 684.69 194.188 685.437 194.188 686.352C194.188 687.102 193.972 687.773 193.54 688.364C193.114 688.955 192.518 689.42 191.751 689.761C190.984 690.102 190.092 690.273 189.075 690.273C187.739 690.273 186.634 689.983 185.759 689.403C184.884 688.824 184.33 687.977 184.097 686.864L186.006 686.386C186.188 687.091 186.532 687.619 187.038 687.972C187.549 688.324 188.217 688.5 189.04 688.5C189.978 688.5 190.722 688.301 191.273 687.903C191.83 687.5 192.109 687.017 192.109 686.455C192.109 686 191.95 685.619 191.631 685.312C191.313 685 190.825 684.767 190.165 684.614L187.984 684.102C186.785 683.818 185.904 683.378 185.342 682.781C184.785 682.179 184.506 681.426 184.506 680.523C184.506 679.784 184.714 679.131 185.129 678.562C185.549 677.994 186.12 677.548 186.842 677.224C187.569 676.901 188.393 676.739 189.313 676.739C190.609 676.739 191.626 677.023 192.364 677.591C193.109 678.159 193.637 678.909 193.95 679.841ZM202.909 676.909V678.614H196.125V676.909H202.909ZM198.102 673.773H200.114V686.25C200.114 686.818 200.196 687.244 200.361 687.528C200.531 687.807 200.747 687.994 201.009 688.091C201.276 688.182 201.557 688.227 201.852 688.227C202.074 688.227 202.256 688.216 202.398 688.193C202.54 688.165 202.653 688.142 202.739 688.125L203.148 689.932C203.011 689.983 202.821 690.034 202.577 690.085C202.332 690.142 202.023 690.17 201.648 690.17C201.08 690.17 200.523 690.048 199.977 689.804C199.438 689.56 198.989 689.188 198.631 688.688C198.278 688.188 198.102 687.557 198.102 686.795V673.773ZM205.935 690V676.909H207.946V690H205.935ZM206.957 674.727C206.565 674.727 206.227 674.594 205.943 674.327C205.665 674.06 205.526 673.739 205.526 673.364C205.526 672.989 205.665 672.668 205.943 672.401C206.227 672.134 206.565 672 206.957 672C207.349 672 207.685 672.134 207.963 672.401C208.247 672.668 208.389 672.989 208.389 673.364C208.389 673.739 208.247 674.06 207.963 674.327C207.685 674.594 207.349 674.727 206.957 674.727ZM213.641 682.125V690H211.63V676.909H213.573V678.955H213.744C214.05 678.29 214.516 677.756 215.141 677.352C215.766 676.943 216.573 676.739 217.562 676.739C218.448 676.739 219.224 676.92 219.888 677.284C220.553 677.642 221.07 678.188 221.44 678.92C221.809 679.648 221.994 680.568 221.994 681.682V690H219.982V681.818C219.982 680.79 219.715 679.989 219.181 679.415C218.647 678.835 217.914 678.545 216.982 678.545C216.34 678.545 215.766 678.685 215.261 678.963C214.761 679.241 214.366 679.648 214.076 680.182C213.786 680.716 213.641 681.364 213.641 682.125ZM230.953 695.182C229.982 695.182 229.146 695.057 228.447 694.807C227.749 694.562 227.166 694.239 226.7 693.835C226.24 693.438 225.874 693.011 225.601 692.557L227.203 691.432C227.385 691.67 227.615 691.943 227.893 692.25C228.172 692.562 228.553 692.832 229.036 693.06C229.524 693.293 230.163 693.409 230.953 693.409C232.01 693.409 232.882 693.153 233.57 692.642C234.257 692.131 234.601 691.33 234.601 690.239V687.58H234.43C234.283 687.818 234.072 688.114 233.8 688.466C233.533 688.812 233.146 689.122 232.641 689.395C232.141 689.662 231.464 689.795 230.612 689.795C229.555 689.795 228.607 689.545 227.766 689.045C226.93 688.545 226.268 687.818 225.78 686.864C225.297 685.909 225.055 684.75 225.055 683.386C225.055 682.045 225.291 680.878 225.763 679.884C226.234 678.884 226.891 678.111 227.732 677.565C228.572 677.014 229.544 676.739 230.646 676.739C231.499 676.739 232.175 676.881 232.675 677.165C233.18 677.443 233.567 677.761 233.834 678.119C234.107 678.472 234.317 678.761 234.464 678.989H234.669V676.909H236.612V690.375C236.612 691.5 236.357 692.415 235.845 693.119C235.339 693.83 234.658 694.349 233.8 694.679C232.947 695.014 231.999 695.182 230.953 695.182ZM230.885 687.989C231.692 687.989 232.374 687.804 232.93 687.435C233.487 687.065 233.911 686.534 234.2 685.841C234.49 685.148 234.635 684.318 234.635 683.352C234.635 682.409 234.493 681.577 234.209 680.855C233.925 680.134 233.504 679.568 232.947 679.159C232.391 678.75 231.703 678.545 230.885 678.545C230.033 678.545 229.322 678.761 228.754 679.193C228.192 679.625 227.768 680.205 227.484 680.932C227.206 681.659 227.067 682.466 227.067 683.352C227.067 684.261 227.209 685.065 227.493 685.764C227.783 686.457 228.209 687.003 228.771 687.401C229.339 687.793 230.044 687.989 230.885 687.989Z" fill="#2D2D2D"/>
<circle cx="8" cy="826.5" r="8" fill="#B0D7F8"/>
<path d="M59.1136 835V817.545H65.0114C66.3807 817.545 67.5 817.793 68.3693 818.287C69.2443 818.776 69.892 819.438 70.3125 820.273C70.733 821.108 70.9432 822.04 70.9432 823.068C70.9432 824.097 70.733 825.031 70.3125 825.872C69.8977 826.713 69.2557 827.384 68.3864 827.884C67.517 828.378 66.4034 828.625 65.0455 828.625H60.8182V826.75H64.9773C65.9148 826.75 66.6676 826.588 67.2358 826.264C67.804 825.94 68.2159 825.503 68.4716 824.952C68.733 824.395 68.8636 823.767 68.8636 823.068C68.8636 822.369 68.733 821.744 68.4716 821.193C68.2159 820.642 67.8011 820.21 67.2273 819.898C66.6534 819.58 65.892 819.42 64.9432 819.42H61.2273V835H59.1136ZM74.0753 835V821.909H76.0185V823.886H76.1548C76.3935 823.239 76.8253 822.713 77.4503 822.31C78.0753 821.906 78.7798 821.705 79.5639 821.705C79.7116 821.705 79.8963 821.707 80.1179 821.713C80.3395 821.719 80.5071 821.727 80.6207 821.739V823.784C80.5526 823.767 80.3963 823.741 80.152 823.707C79.9134 823.668 79.6605 823.648 79.3935 823.648C78.7571 823.648 78.1889 823.781 77.6889 824.048C77.1946 824.31 76.8026 824.673 76.5128 825.139C76.2287 825.599 76.0866 826.125 76.0866 826.716V835H74.0753ZM87.9247 835.273C86.7429 835.273 85.706 834.991 84.8139 834.429C83.9276 833.866 83.2344 833.08 82.7344 832.068C82.2401 831.057 81.9929 829.875 81.9929 828.523C81.9929 827.159 82.2401 825.969 82.7344 824.952C83.2344 823.935 83.9276 823.145 84.8139 822.582C85.706 822.02 86.7429 821.739 87.9247 821.739C89.1065 821.739 90.1406 822.02 91.027 822.582C91.919 823.145 92.6122 823.935 93.1065 824.952C93.6065 825.969 93.8565 827.159 93.8565 828.523C93.8565 829.875 93.6065 831.057 93.1065 832.068C92.6122 833.08 91.919 833.866 91.027 834.429C90.1406 834.991 89.1065 835.273 87.9247 835.273ZM87.9247 833.466C88.8224 833.466 89.5611 833.236 90.1406 832.776C90.7202 832.315 91.1491 831.71 91.4276 830.96C91.706 830.21 91.8452 829.398 91.8452 828.523C91.8452 827.648 91.706 826.832 91.4276 826.077C91.1491 825.321 90.7202 824.71 90.1406 824.244C89.5611 823.778 88.8224 823.545 87.9247 823.545C87.027 823.545 86.2884 823.778 85.7088 824.244C85.1293 824.71 84.7003 825.321 84.4219 826.077C84.1435 826.832 84.0043 827.648 84.0043 828.523C84.0043 829.398 84.1435 830.21 84.4219 830.96C84.7003 831.71 85.1293 832.315 85.7088 832.776C86.2884 833.236 87.027 833.466 87.9247 833.466ZM102.62 821.909V823.614H95.8359V821.909H102.62ZM97.8132 818.773H99.8246V831.25C99.8246 831.818 99.907 832.244 100.072 832.528C100.242 832.807 100.458 832.994 100.719 833.091C100.987 833.182 101.268 833.227 101.563 833.227C101.785 833.227 101.967 833.216 102.109 833.193C102.251 833.165 102.364 833.142 102.45 833.125L102.859 834.932C102.722 834.983 102.532 835.034 102.288 835.085C102.043 835.142 101.734 835.17 101.359 835.17C100.79 835.17 100.234 835.048 99.6882 834.804C99.1484 834.56 98.6996 834.188 98.3416 833.688C97.9893 833.188 97.8132 832.557 97.8132 831.795V818.773ZM110.823 835.273C109.641 835.273 108.604 834.991 107.712 834.429C106.826 833.866 106.133 833.08 105.633 832.068C105.138 831.057 104.891 829.875 104.891 828.523C104.891 827.159 105.138 825.969 105.633 824.952C106.133 823.935 106.826 823.145 107.712 822.582C108.604 822.02 109.641 821.739 110.823 821.739C112.005 821.739 113.039 822.02 113.925 822.582C114.817 823.145 115.511 823.935 116.005 824.952C116.505 825.969 116.755 827.159 116.755 828.523C116.755 829.875 116.505 831.057 116.005 832.068C115.511 833.08 114.817 833.866 113.925 834.429C113.039 834.991 112.005 835.273 110.823 835.273ZM110.823 833.466C111.721 833.466 112.46 833.236 113.039 832.776C113.619 832.315 114.048 831.71 114.326 830.96C114.604 830.21 114.744 829.398 114.744 828.523C114.744 827.648 114.604 826.832 114.326 826.077C114.048 825.321 113.619 824.71 113.039 824.244C112.46 823.778 111.721 823.545 110.823 823.545C109.925 823.545 109.187 823.778 108.607 824.244C108.028 824.71 107.599 825.321 107.32 826.077C107.042 826.832 106.903 827.648 106.903 828.523C106.903 829.398 107.042 830.21 107.32 830.96C107.599 831.71 108.028 832.315 108.607 832.776C109.187 833.236 109.925 833.466 110.823 833.466ZM125.518 821.909V823.614H118.734V821.909H125.518ZM120.712 818.773H122.723V831.25C122.723 831.818 122.805 832.244 122.97 832.528C123.141 832.807 123.357 832.994 123.618 833.091C123.885 833.182 124.166 833.227 124.462 833.227C124.683 833.227 124.865 833.216 125.007 833.193C125.149 833.165 125.263 833.142 125.348 833.125L125.757 834.932C125.621 834.983 125.43 835.034 125.186 835.085C124.942 835.142 124.632 835.17 124.257 835.17C123.689 835.17 123.132 835.048 122.587 834.804C122.047 834.56 121.598 834.188 121.24 833.688C120.888 833.188 120.712 832.557 120.712 831.795V818.773ZM129.839 839.909C129.499 839.909 129.195 839.881 128.928 839.824C128.661 839.773 128.476 839.722 128.374 839.67L128.885 837.898C129.374 838.023 129.805 838.068 130.18 838.034C130.555 838 130.888 837.832 131.178 837.531C131.473 837.236 131.743 836.756 131.987 836.091L132.362 835.068L127.521 821.909H129.703L133.317 832.341H133.453L137.067 821.909H139.249L133.692 836.909C133.442 837.585 133.132 838.145 132.763 838.588C132.393 839.037 131.964 839.369 131.476 839.585C130.993 839.801 130.447 839.909 129.839 839.909ZM141.903 839.909V821.909H143.847V823.989H144.085C144.233 823.761 144.438 823.472 144.699 823.119C144.966 822.761 145.347 822.443 145.841 822.165C146.341 821.881 147.017 821.739 147.869 821.739C148.972 821.739 149.943 822.014 150.784 822.565C151.625 823.116 152.281 823.898 152.753 824.909C153.224 825.92 153.46 827.114 153.46 828.489C153.46 829.875 153.224 831.077 152.753 832.094C152.281 833.105 151.628 833.889 150.793 834.446C149.957 834.997 148.994 835.273 147.903 835.273C147.063 835.273 146.389 835.134 145.884 834.855C145.378 834.571 144.989 834.25 144.716 833.892C144.443 833.528 144.233 833.227 144.085 832.989H143.915V839.909H141.903ZM143.881 828.455C143.881 829.443 144.026 830.315 144.315 831.071C144.605 831.821 145.028 832.409 145.585 832.835C146.142 833.256 146.824 833.466 147.631 833.466C148.472 833.466 149.173 833.244 149.736 832.801C150.304 832.352 150.73 831.75 151.014 830.994C151.304 830.233 151.449 829.386 151.449 828.455C151.449 827.534 151.307 826.705 151.023 825.966C150.744 825.222 150.321 824.634 149.753 824.202C149.19 823.764 148.483 823.545 147.631 823.545C146.813 823.545 146.125 823.753 145.568 824.168C145.011 824.577 144.591 825.151 144.307 825.889C144.023 826.622 143.881 827.477 143.881 828.455ZM162.017 835.273C160.756 835.273 159.668 834.994 158.753 834.438C157.844 833.875 157.142 833.091 156.648 832.085C156.159 831.074 155.915 829.898 155.915 828.557C155.915 827.216 156.159 826.034 156.648 825.011C157.142 823.983 157.83 823.182 158.71 822.608C159.597 822.028 160.631 821.739 161.812 821.739C162.494 821.739 163.168 821.852 163.832 822.08C164.497 822.307 165.102 822.676 165.648 823.188C166.193 823.693 166.628 824.364 166.952 825.199C167.276 826.034 167.438 827.062 167.438 828.284V829.136H157.347V827.398H165.392C165.392 826.659 165.244 826 164.949 825.42C164.659 824.841 164.244 824.384 163.705 824.048C163.17 823.713 162.54 823.545 161.812 823.545C161.011 823.545 160.318 823.744 159.733 824.142C159.153 824.534 158.707 825.045 158.395 825.676C158.082 826.307 157.926 826.983 157.926 827.705V828.864C157.926 829.852 158.097 830.69 158.438 831.378C158.784 832.06 159.264 832.58 159.878 832.938C160.491 833.29 161.205 833.466 162.017 833.466C162.545 833.466 163.023 833.392 163.449 833.244C163.881 833.091 164.253 832.864 164.565 832.562C164.878 832.256 165.119 831.875 165.29 831.42L167.233 831.966C167.028 832.625 166.685 833.205 166.202 833.705C165.719 834.199 165.122 834.585 164.412 834.864C163.702 835.136 162.903 835.273 162.017 835.273ZM182.94 821.909V823.614H176.156V821.909H182.94ZM178.134 818.773H180.145V831.25C180.145 831.818 180.227 832.244 180.392 832.528C180.563 832.807 180.778 832.994 181.04 833.091C181.307 833.182 181.588 833.227 181.884 833.227C182.105 833.227 182.287 833.216 182.429 833.193C182.571 833.165 182.685 833.142 182.77 833.125L183.179 834.932C183.043 834.983 182.852 835.034 182.608 835.085C182.364 835.142 182.054 835.17 181.679 835.17C181.111 835.17 180.554 835.048 180.009 834.804C179.469 834.56 179.02 834.188 178.662 833.688C178.31 833.188 178.134 832.557 178.134 831.795V818.773ZM191.314 835.273C190.053 835.273 188.964 834.994 188.05 834.438C187.141 833.875 186.439 833.091 185.945 832.085C185.456 831.074 185.212 829.898 185.212 828.557C185.212 827.216 185.456 826.034 185.945 825.011C186.439 823.983 187.126 823.182 188.007 822.608C188.893 822.028 189.928 821.739 191.109 821.739C191.791 821.739 192.464 821.852 193.129 822.08C193.794 822.307 194.399 822.676 194.945 823.188C195.49 823.693 195.925 824.364 196.249 825.199C196.572 826.034 196.734 827.062 196.734 828.284V829.136H186.643V827.398H194.689C194.689 826.659 194.541 826 194.246 825.42C193.956 824.841 193.541 824.384 193.001 824.048C192.467 823.713 191.837 823.545 191.109 823.545C190.308 823.545 189.615 823.744 189.03 824.142C188.45 824.534 188.004 825.045 187.692 825.676C187.379 826.307 187.223 826.983 187.223 827.705V828.864C187.223 829.852 187.393 830.69 187.734 831.378C188.081 832.06 188.561 832.58 189.175 832.938C189.788 833.29 190.501 833.466 191.314 833.466C191.842 833.466 192.32 833.392 192.746 833.244C193.178 833.091 193.55 832.864 193.862 832.562C194.175 832.256 194.416 831.875 194.587 831.42L196.53 831.966C196.325 832.625 195.982 833.205 195.499 833.705C195.016 834.199 194.419 834.585 193.709 834.864C192.999 835.136 192.2 835.273 191.314 835.273ZM209.067 824.841L207.26 825.352C207.146 825.051 206.979 824.759 206.757 824.474C206.541 824.185 206.246 823.946 205.871 823.759C205.496 823.571 205.016 823.477 204.43 823.477C203.629 823.477 202.962 823.662 202.428 824.031C201.899 824.395 201.635 824.858 201.635 825.42C201.635 825.92 201.817 826.315 202.18 826.605C202.544 826.895 203.112 827.136 203.885 827.33L205.828 827.807C206.999 828.091 207.871 828.526 208.445 829.111C209.018 829.69 209.305 830.437 209.305 831.352C209.305 832.102 209.089 832.773 208.658 833.364C208.232 833.955 207.635 834.42 206.868 834.761C206.101 835.102 205.209 835.273 204.192 835.273C202.857 835.273 201.751 834.983 200.876 834.403C200.001 833.824 199.447 832.977 199.214 831.864L201.124 831.386C201.305 832.091 201.649 832.619 202.155 832.972C202.666 833.324 203.334 833.5 204.158 833.5C205.095 833.5 205.839 833.301 206.391 832.903C206.947 832.5 207.226 832.017 207.226 831.455C207.226 831 207.067 830.619 206.749 830.312C206.43 830 205.942 829.767 205.283 829.614L203.101 829.102C201.902 828.818 201.021 828.378 200.459 827.781C199.902 827.179 199.624 826.426 199.624 825.523C199.624 824.784 199.831 824.131 200.246 823.562C200.666 822.994 201.237 822.548 201.959 822.224C202.686 821.901 203.51 821.739 204.43 821.739C205.726 821.739 206.743 822.023 207.482 822.591C208.226 823.159 208.754 823.909 209.067 824.841ZM218.026 821.909V823.614H211.242V821.909H218.026ZM213.219 818.773H215.231V831.25C215.231 831.818 215.313 832.244 215.478 832.528C215.648 832.807 215.864 832.994 216.126 833.091C216.393 833.182 216.674 833.227 216.969 833.227C217.191 833.227 217.373 833.216 217.515 833.193C217.657 833.165 217.771 833.142 217.856 833.125L218.265 834.932C218.129 834.983 217.938 835.034 217.694 835.085C217.45 835.142 217.14 835.17 216.765 835.17C216.197 835.17 215.64 835.048 215.094 834.804C214.555 834.56 214.106 834.188 213.748 833.688C213.396 833.188 213.219 832.557 213.219 831.795V818.773ZM221.052 835V821.909H223.063V835H221.052ZM222.075 819.727C221.683 819.727 221.344 819.594 221.06 819.327C220.782 819.06 220.643 818.739 220.643 818.364C220.643 817.989 220.782 817.668 221.06 817.401C221.344 817.134 221.683 817 222.075 817C222.467 817 222.802 817.134 223.08 817.401C223.364 817.668 223.506 817.989 223.506 818.364C223.506 818.739 223.364 819.06 223.08 819.327C222.802 819.594 222.467 819.727 222.075 819.727ZM228.759 827.125V835H226.747V821.909H228.69V823.955H228.861C229.168 823.29 229.634 822.756 230.259 822.352C230.884 821.943 231.69 821.739 232.679 821.739C233.565 821.739 234.341 821.92 235.006 822.284C235.67 822.642 236.188 823.188 236.557 823.92C236.926 824.648 237.111 825.568 237.111 826.682V835H235.099V826.818C235.099 825.79 234.832 824.989 234.298 824.415C233.764 823.835 233.031 823.545 232.099 823.545C231.457 823.545 230.884 823.685 230.378 823.963C229.878 824.241 229.483 824.648 229.193 825.182C228.903 825.716 228.759 826.364 228.759 827.125ZM246.07 840.182C245.099 840.182 244.263 840.057 243.565 839.807C242.866 839.562 242.283 839.239 241.817 838.835C241.357 838.438 240.991 838.011 240.718 837.557L242.32 836.432C242.502 836.67 242.732 836.943 243.011 837.25C243.289 837.562 243.67 837.832 244.153 838.06C244.641 838.293 245.281 838.409 246.07 838.409C247.127 838.409 247.999 838.153 248.687 837.642C249.374 837.131 249.718 836.33 249.718 835.239V832.58H249.548C249.4 832.818 249.19 833.114 248.917 833.466C248.65 833.812 248.263 834.122 247.758 834.395C247.258 834.662 246.582 834.795 245.729 834.795C244.673 834.795 243.724 834.545 242.883 834.045C242.048 833.545 241.386 832.818 240.897 831.864C240.414 830.909 240.173 829.75 240.173 828.386C240.173 827.045 240.408 825.878 240.88 824.884C241.352 823.884 242.008 823.111 242.849 822.565C243.69 822.014 244.661 821.739 245.763 821.739C246.616 821.739 247.292 821.881 247.792 822.165C248.298 822.443 248.684 822.761 248.951 823.119C249.224 823.472 249.434 823.761 249.582 823.989H249.786V821.909H251.729V835.375C251.729 836.5 251.474 837.415 250.962 838.119C250.457 838.83 249.775 839.349 248.917 839.679C248.065 840.014 247.116 840.182 246.07 840.182ZM246.002 832.989C246.809 832.989 247.491 832.804 248.048 832.435C248.604 832.065 249.028 831.534 249.317 830.841C249.607 830.148 249.752 829.318 249.752 828.352C249.752 827.409 249.61 826.577 249.326 825.855C249.042 825.134 248.621 824.568 248.065 824.159C247.508 823.75 246.82 823.545 246.002 823.545C245.15 823.545 244.44 823.761 243.871 824.193C243.309 824.625 242.886 825.205 242.602 825.932C242.323 826.659 242.184 827.466 242.184 828.352C242.184 829.261 242.326 830.065 242.61 830.764C242.9 831.457 243.326 832.003 243.888 832.401C244.457 832.793 245.161 832.989 246.002 832.989Z" fill="#2D2D2D"/>
<path d="M9.51705 1035V1017.55H21.0739V1020.59H13.2074V1024.75H20.3068V1027.79H13.2074V1035H9.51705ZM23.4879 1035V1021.91H27.1186V1035H23.4879ZM25.3118 1020.22C24.772 1020.22 24.3089 1020.04 23.9226 1019.68C23.5419 1019.32 23.3516 1018.89 23.3516 1018.38C23.3516 1017.88 23.5419 1017.45 23.9226 1017.09C24.3089 1016.73 24.772 1016.55 25.3118 1016.55C25.8516 1016.55 26.3118 1016.73 26.6925 1017.09C27.0788 1017.45 27.272 1017.88 27.272 1018.38C27.272 1018.89 27.0788 1019.32 26.6925 1019.68C26.3118 1020.04 25.8516 1020.22 25.3118 1020.22ZM33.6577 1027.43V1035H30.027V1021.91H33.4872V1024.22H33.6406C33.9304 1023.46 34.4162 1022.86 35.098 1022.41C35.7798 1021.96 36.6065 1021.74 37.5781 1021.74C38.4872 1021.74 39.2798 1021.94 39.956 1022.34C40.6321 1022.73 41.1577 1023.3 41.5327 1024.04C41.9077 1024.77 42.0952 1025.65 42.0952 1026.66V1035H38.4645V1027.31C38.4702 1026.51 38.2656 1025.89 37.8509 1025.44C37.4361 1024.98 36.8651 1024.76 36.1378 1024.76C35.6491 1024.76 35.2173 1024.86 34.8423 1025.07C34.473 1025.28 34.1832 1025.59 33.973 1025.99C33.7685 1026.39 33.6634 1026.87 33.6577 1027.43ZM44.9567 1035V1021.91H48.5874V1035H44.9567ZM46.7805 1020.22C46.2408 1020.22 45.7777 1020.04 45.3913 1019.68C45.0107 1019.32 44.8203 1018.89 44.8203 1018.38C44.8203 1017.88 45.0107 1017.45 45.3913 1017.09C45.7777 1016.73 46.2408 1016.55 46.7805 1016.55C47.3203 1016.55 47.7805 1016.73 48.1612 1017.09C48.5476 1017.45 48.7408 1017.88 48.7408 1018.38C48.7408 1018.89 48.5476 1019.32 48.1612 1019.68C47.7805 1020.04 47.3203 1020.22 46.7805 1020.22ZM62.3878 1025.64L59.0639 1025.85C59.0071 1025.56 58.8849 1025.31 58.6974 1025.08C58.5099 1024.85 58.2628 1024.66 57.956 1024.53C57.6548 1024.38 57.294 1024.31 56.8736 1024.31C56.3111 1024.31 55.8366 1024.43 55.4503 1024.67C55.0639 1024.9 54.8707 1025.22 54.8707 1025.61C54.8707 1025.92 54.9957 1026.18 55.2457 1026.4C55.4957 1026.62 55.9247 1026.79 56.5327 1026.92L58.902 1027.4C60.1747 1027.66 61.1236 1028.08 61.7486 1028.66C62.3736 1029.24 62.6861 1030 62.6861 1030.94C62.6861 1031.8 62.4332 1032.55 61.9276 1033.2C61.4276 1033.85 60.7401 1034.36 59.8651 1034.72C58.9957 1035.08 57.9929 1035.26 56.8565 1035.26C55.1236 1035.26 53.7429 1034.89 52.7145 1034.17C51.6918 1033.45 51.0923 1032.46 50.9162 1031.21L54.4872 1031.02C54.5952 1031.55 54.8565 1031.95 55.2713 1032.23C55.6861 1032.5 56.2173 1032.64 56.8651 1032.64C57.5014 1032.64 58.0128 1032.52 58.3991 1032.27C58.7912 1032.02 58.9901 1031.7 58.9957 1031.31C58.9901 1030.98 58.8509 1030.71 58.5781 1030.5C58.3054 1030.28 57.8849 1030.12 57.3168 1030.01L55.0497 1029.55C53.7713 1029.3 52.8196 1028.86 52.1946 1028.22C51.5753 1027.59 51.2656 1026.79 51.2656 1025.81C51.2656 1024.97 51.4929 1024.25 51.9474 1023.64C52.4077 1023.03 53.0526 1022.56 53.8821 1022.23C54.7173 1021.9 55.6946 1021.74 56.8139 1021.74C58.4673 1021.74 59.7685 1022.09 60.7173 1022.79C61.6719 1023.49 62.2287 1024.44 62.3878 1025.64ZM68.603 1027.43V1035H64.9723V1017.55H68.5007V1024.22H68.6541C68.9496 1023.45 69.4268 1022.84 70.0859 1022.4C70.745 1021.96 71.5717 1021.74 72.5661 1021.74C73.4751 1021.74 74.2678 1021.94 74.9439 1022.34C75.6257 1022.73 76.1541 1023.29 76.5291 1024.03C76.9098 1024.76 77.0973 1025.64 77.0916 1026.66V1035H73.4609V1027.31C73.4666 1026.51 73.2621 1025.88 72.8473 1025.43C72.4382 1024.98 71.8643 1024.76 71.1257 1024.76C70.6314 1024.76 70.1939 1024.86 69.8132 1025.07C69.4382 1025.28 69.1428 1025.59 68.9268 1025.99C68.7166 1026.39 68.6087 1026.87 68.603 1027.43Z" fill="black"/>
</svg>
